<svg id="a00bfe12-dbb0-49b2-a9c0-e1ac6f64ae9e" data-name="Layer 1" xmlns="http://www.w3.org/2000/svg" width="207.96" height="189.64" viewBox="0 0 207.96 189.64"><defs><style>.bad6e827-fbf7-4779-9d57-1fcd0a323feb{fill:#00bfd6;opacity:0.4;isolation:isolate;}.a0dd1dd3-7c32-4a48-9d1f-26fc71149c99{fill:#fff;}.a0dd1dd3-7c32-4a48-9d1f-26fc71149c99,.a573e0da-164c-451b-be1e-aa3a110bc623,.a76753d8-b48b-4c9f-b197-b5c586a21e05,.bec65c23-c0cd-47c7-9f5d-734ca641fb04,.f3dbb87b-133c-4876-916d-77ad33374e3f{stroke:#000;}.a0dd1dd3-7c32-4a48-9d1f-26fc71149c99,.a573e0da-164c-451b-be1e-aa3a110bc623,.a76753d8-b48b-4c9f-b197-b5c586a21e05,.bec65c23-c0cd-47c7-9f5d-734ca641fb04{stroke-linecap:round;stroke-linejoin:round;}.a573e0da-164c-451b-be1e-aa3a110bc623{fill:#cac8c8;}.bec65c23-c0cd-47c7-9f5d-734ca641fb04{fill:none;}.a76753d8-b48b-4c9f-b197-b5c586a21e05{fill:#f2f2f2;}.f3dbb87b-133c-4876-916d-77ad33374e3f{fill:#ccc;}</style></defs><path class="bad6e827-fbf7-4779-9d57-1fcd0a323feb" d="M168.6,157.43C120.84,203,83.2,200.81,35.43,155.22c-45.59-43.52-48-84-2.42-127.55,47.76-45.59,73.71-25,133.47,3.11C228.36,59.86,214.19,113.91,168.6,157.43Z" transform="translate(-0.01 -0.9)"/><path class="a0dd1dd3-7c32-4a48-9d1f-26fc71149c99" d="M108.21,156l52.88-31V64.4L108.21,33.88" transform="translate(-0.01 -0.9)"/><path class="a573e0da-164c-451b-be1e-aa3a110bc623" d="M108.21,33.88,55.33,64.4v58.68a4.12,4.12,0,0,0,2.06,3.57L108.21,156" transform="translate(-0.01 -0.9)"/><path class="bec65c23-c0cd-47c7-9f5d-734ca641fb04" d="M159.71,65.17l-51.5,29.74L56.71,65.17m51.5,29.76V156m0-63.22v14.44" transform="translate(-0.01 -0.9)"/><path class="a573e0da-164c-451b-be1e-aa3a110bc623" d="M50.53,61.21V74.68l57.68,33.07V81.89Z" transform="translate(-0.01 -0.9)"/><path class="a0dd1dd3-7c32-4a48-9d1f-26fc71149c99" d="M165.89,61.21V74.68l-57.68,33.07V87.38L159,59.91Z" transform="translate(-0.01 -0.9)"/><path class="a76753d8-b48b-4c9f-b197-b5c586a21e05" d="M165.89,60.86,108.21,93.93,50.53,60.86,106.16,29a4.11,4.11,0,0,1,4.1,0Z" transform="translate(-0.01 -0.9)"/><path class="a0dd1dd3-7c32-4a48-9d1f-26fc71149c99" d="M76.46,139.62l39.83,2.55a7.48,7.48,0,0,0,0-15h-.86a59.21,59.21,0,0,1-32.88-10,33.58,33.58,0,0,0-18.63-5.64H47.53l.7,35.78,44,14.73a20.75,20.75,0,0,0,14.52-.5l61.31-25.35A7.22,7.22,0,0,0,172,126.8l-.12-.28a7.21,7.21,0,0,0-9.24-3.67L122.54,139" transform="translate(-0.01 -0.9)"/><rect class="a76753d8-b48b-4c9f-b197-b5c586a21e05" x="34.13" y="106.12" width="14.08" height="44.56" rx="5.53"/><circle class="f3dbb87b-133c-4876-916d-77ad33374e3f" cx="41.44" cy="141.75" r="2.5"/></svg>