<svg xmlns="http://www.w3.org/2000/svg" viewBox="0 0 207.97 189.63"><defs><style>.cls-1{opacity:0.4;}.cls-2{fill:#00bfd6;}.cls-3,.cls-4,.cls-6,.cls-7,.cls-8{fill:#fff;}.cls-3,.cls-4,.cls-5,.cls-6,.cls-7,.cls-8,.cls-9{stroke:#000;}.cls-3,.cls-4,.cls-5,.cls-9{stroke-linecap:round;stroke-linejoin:round;}.cls-5{fill:none;}.cls-6{stroke-miterlimit:10.04;stroke-width:1px;}.cls-7{stroke-miterlimit:10;}.cls-8{stroke-miterlimit:10;}.cls-9{fill:#e6e6e6;}</style></defs><g id="Layer_2" data-name="Layer 2"><g id="Layer_1-2" data-name="Layer 1"><g class="cls-1"><path class="cls-2" d="M168.59,156.52c-47.76,45.59-85.4,43.38-133.17-2.21-45.59-43.52-48-84-2.42-127.55,47.77-45.59,73.71-25,133.48,3.09C228.36,59,214.19,113,168.59,156.52Z"/></g><path class="cls-3" d="M89.14,87.56,79.88,52.48a5,5,0,0,1,3.57-6.1h0l30.24-8a5,5,0,0,1,6.11,3.56h0L129.09,77"/><path class="cls-4" d="M89.08,87.32l57-15a5,5,0,0,1,6.11,3.56l15,57h0l-61.8,16.31h0L89.08,87.32Z"/><rect class="cls-5" x="106.8" y="88.73" width="42.67" height="42.67" rx="5" transform="translate(-23.85 36.36) rotate(-14.79)"/><path class="cls-6" d="M69,28.84h0a5.24,5.24,0,0,1,6.42,3.7l31.09,116a5.25,5.25,0,0,1-3.7,6.42h0a5.25,5.25,0,0,1-6.42-3.71l-31.09-116A5.23,5.23,0,0,1,69,28.84Z"/><rect class="cls-7" x="97.96" y="138.28" width="96.72" height="10.68" rx="5.34" transform="translate(-31.81 42.11) rotate(-14.79)"/><path class="cls-7" d="M70.7,27.26h0A5.23,5.23,0,0,1,67,33.64L41.1,40.47a5.21,5.21,0,0,1-6.38-3.71h0a5.22,5.22,0,0,1,3.72-6.37l25.88-6.84A5.23,5.23,0,0,1,70.7,27.26Z"/><circle class="cls-8" cx="68.24" cy="28.11" r="8.6"/><circle class="cls-4" cx="101.62" cy="155" r="16.56"/><circle class="cls-9" cx="101.62" cy="155" r="7.02"/><path class="cls-9" d="M91.78,44.17l13.54-3.57h0L110,58.26a2,2,0,0,1-1.42,2.45l-9.67,2.55a2,2,0,0,1-2.45-1.42L91.78,44.17Z"/></g></g></svg>