<?xml version="1.0" encoding="utf-8"?>
<!-- Generator: Adobe Illustrator 24.3.0, SVG Export Plug-In . SVG Version: 6.00 Build 0)  -->
<!DOCTYPE svg PUBLIC "-//W3C//DTD SVG 1.0//EN" "http://www.w3.org/TR/2001/REC-SVG-20010904/DTD/svg10.dtd" [
	<!ENTITY ns_extend "http://ns.adobe.com/Extensibility/1.0/">
	<!ENTITY ns_ai "http://ns.adobe.com/AdobeIllustrator/10.0/">
	<!ENTITY ns_graphs "http://ns.adobe.com/Graphs/1.0/">
	<!ENTITY ns_vars "http://ns.adobe.com/Variables/1.0/">
	<!ENTITY ns_imrep "http://ns.adobe.com/ImageReplacement/1.0/">
	<!ENTITY ns_sfw "http://ns.adobe.com/SaveForWeb/1.0/">
	<!ENTITY ns_custom "http://ns.adobe.com/GenericCustomNamespace/1.0/">
	<!ENTITY ns_adobe_xpath "http://ns.adobe.com/XPath/1.0/">
]>
<svg version="1.0" id="Layer_1" xmlns:x="&ns_extend;" xmlns:i="&ns_ai;" xmlns:graph="&ns_graphs;"
	 xmlns="http://www.w3.org/2000/svg" xmlns:xlink="http://www.w3.org/1999/xlink" x="0px" y="0px" viewBox="0 0 274 203.6"
	 style="enable-background:new 0 0 274 203.6;" xml:space="preserve">
<style type="text/css">
	.st0{opacity:0.4;}
	.st1{fill:#00BFD6;}
	.st2{fill:#FFFFFF;stroke:#000000;stroke-linecap:round;stroke-linejoin:round;}
	.st3{fill:#F2F2F2;stroke:#000000;stroke-miterlimit:10;}
	.st4{fill:#F2F2F2;stroke:#000000;stroke-linecap:round;stroke-linejoin:round;}
	.st5{fill:#FFFFFF;stroke:#000000;stroke-miterlimit:10;}
	.st6{fill:none;stroke:#000000;stroke-linecap:round;stroke-linejoin:round;}
	.st7{fill:#E6E6E6;stroke:#000000;stroke-linecap:round;stroke-linejoin:round;}
	.st8{fill:#FB3449;stroke:#000000;stroke-linecap:round;stroke-linejoin:round;}
	.st9{fill:#E6E6E6;stroke:#000000;stroke-miterlimit:10;}
	.st10{fill:#FBB03B;stroke:#000000;stroke-linecap:round;stroke-linejoin:round;}
	.st11{fill:#8E8E8E;}
	.st12{font-family:'MyriadPro-Regular';}
	.st13{font-size:36px;}
	.st14{font-size:27.8655px;}
</style>
<metadata>
	<sfw  xmlns="&ns_sfw;">
		<slices></slices>
		<sliceSourceBounds  bottomLeftOrigin="true" height="189.6" width="223.1" x="22.6" y="5.5"></sliceSourceBounds>
	</sfw>
</metadata>
<g class="st0">
	<path class="st1" d="M201.1,165c-47.8,45.6-85.4,43.4-133.2-2.2c-45.6-43.5-48-84-2.4-127.6c47.8-45.6,73.7-25,133.5,3.1
		C260.9,67.4,246.7,121.5,201.1,165z"/>
</g>
<polygon class="st2" points="210.4,62.3 160.1,31.5 109.4,61.6 108.6,175.7 209.5,176.5 "/>
<path class="st3" d="M157.5,119.9l4.2,0c10.2,0.1,18.5,8.4,18.4,18.7l-0.3,37.5l0,0l-41.2-0.3l0,0l0.3-37.5
	C138.9,128,147.3,119.8,157.5,119.9L157.5,119.9z"/>
<polygon class="st4" points="245.2,62.3 210.4,62.1 160,31.5 198.8,31.8 "/>
<rect x="170.2" y="102" transform="matrix(7.330317e-03 -1 1 7.330317e-03 106.282 345.8706)" class="st4" width="114.4" height="34.8"/>
<circle class="st3" cx="160" cy="78.6" r="23.6"/>
<circle class="st5" cx="60.4" cy="176.3" r="10.9"/>
<path class="st6" d="M66.1,181.3c-1.3,1.3-3,2.1-4.9,2.1"/>
<circle class="st7" cx="60.4" cy="176.3" r="3.4"/>
<path class="st8" d="M36.9,155.6h-2.2c-0.8,0-1.5,0.7-1.5,1.5v1c0,0.7,0.6,1.2,1.2,1.2h0.8"/>
<path class="st2" d="M97.9,143H58.8c-13.8,0-25,11.2-25,25v6.8h52.1l18.7-0.1c-9.3-0.8-16.2-8.9-15.4-18.2
	c0.5-5.7,3.8-10.9,8.9-13.5"/>
<path class="st2" d="M122,161.8l-6.9,8.1c-2.5,2.9-6.2,4.6-10,4.6H33.8c0.4,1.1,1.4,1.9,2.6,1.9h69.3c3.8,0,7.5-1.7,10-4.6l6.4-7.5
	c0.6-0.7,1.5-1.1,2.4-1.1h6.5l3.5-1.4L122,161.8z"/>
<path class="st2" d="M75,132.8h20.6c2.7,0,4.9,2.2,4.9,4.9v0.4c0,2.7-2.1,4.9-4.8,4.9c0,0,0,0-0.1,0H75l0,0V132.8L75,132.8z"/>
<path class="st2" d="M56.7,143H75v-10.2l-15.8-3.6c-1.1-0.3-2.2,0.4-2.5,1.6c0,0.1-0.1,0.3-0.1,0.4L56.7,143z"/>
<circle class="st9" cx="83.2" cy="149.4" r="1.9"/>
<line class="st6" x1="58.5" y1="143" x2="36.5" y2="143"/>
<path class="st2" d="M122,161.8l1.2-1.4c5-5.8,6.5-13.9,4-21.1l-4.1-11.8v-0.2l16.7,34.5"/>
<path class="st10" d="M131.8,120.7c1.4,0,2.6,1.2,2.6,2.6c0,0.9-0.5,1.8-1.4,2.3"/>
<path class="st2" d="M132.5,145.7c1-0.5,2.2,0,2.7,1.1s0,2.2-1.1,2.7"/>
<line class="st6" x1="122" y1="126.2" x2="113.8" y2="126.2"/>
<path class="st2" d="M127.4,129.7l6.6-0.1l-3.5-13l-5.7,3.2c-2.1,1.2-3.2,3.7-2.6,6l0,0C122.8,128.1,125,129.8,127.4,129.7z"/>
<circle class="st5" cx="138.3" cy="176.3" r="10.9"/>
<circle class="st7" cx="138.3" cy="176.3" r="3.4"/>
<rect x="41.9" y="112.4" class="st7" width="14.8" height="30.6"/>
<path class="st2" d="M28.1,112.4h23l0,0V143l0,0H27.6c-2.5,0-4.5-2-4.5-4.5l0,0v-21.1C23.1,114.6,25.4,112.4,28.1,112.4L28.1,112.4z
	"/>
<line class="st6" x1="132.8" y1="163.1" x2="134.8" y2="161.8"/>
<line class="st6" x1="136.1" y1="161.8" x2="122.1" y2="161.8"/>
<path class="st5" d="M151.2,176.6c1.1,0,2.1-1,2-2.1c0-0.1,0-0.2,0-0.3c-1.4-8.3-9.2-13.9-17.4-12.5c-6.4,1.1-11.5,6.1-12.5,12.5
	c-0.2,1.1,0.6,2.2,1.7,2.4c0.1,0,0.2,0,0.3,0H151.2z"/>
<path class="st2" d="M147.2,168.4c-1.3-1.4-2.9-2.5-4.6-3.3"/>
<path class="st5" d="M69.7,153.1H54.2c-6.6,0-12,5.4-12,11.3v8.6c0,1.1,0.3,1.4,0.7,1.4h26.7c5.9,0,10.7-4.8,10.7-10.7l0,0
	C80.3,157.9,75.6,153.1,69.7,153.1z"/>
<line class="st6" x1="55.1" y1="163.4" x2="65.4" y2="163.4"/>
<line class="st6" x1="55.1" y1="165.3" x2="65.4" y2="165.3"/>
<line class="st6" x1="55.1" y1="167.2" x2="65.4" y2="167.2"/>
<path class="st6" d="M53.1,153.1h15.6l0,0l0,0c0,3-2.5,5.5-5.5,5.5h-4.6C55.6,158.6,53.1,156.2,53.1,153.1
	C53.1,153.1,53.1,153.1,53.1,153.1z"/>
<text transform="matrix(1 0 0 1 142 91)" class="st11 st12 st13">33</text>
<text transform="matrix(0.8524 0 0 1 25.1201 136.9336)" class="st11 st12 st14">33</text>
</svg>
