<svg id="Layer_1" data-name="Layer 1" xmlns="http://www.w3.org/2000/svg" viewBox="0 0 223.07 189.64"><defs><style>.cls-1{opacity:0.4;}.cls-2{fill:#00bfd6;}.cls-3,.cls-8{fill:#fff;}.cls-10,.cls-11,.cls-12,.cls-13,.cls-3,.cls-4,.cls-5,.cls-6,.cls-7,.cls-8,.cls-9{stroke:#000;}.cls-10,.cls-11,.cls-13,.cls-3,.cls-5,.cls-6,.cls-9{stroke-linecap:round;stroke-linejoin:round;}.cls-4,.cls-5,.cls-6,.cls-7{fill:#f2f2f2;}.cls-4{stroke-miterlimit:10;}.cls-12,.cls-7,.cls-8{stroke-miterlimit:10;}.cls-9{fill:none;}.cls-10,.cls-12{fill:#e6e6e6;}.cls-11{fill:#fb3449;}.cls-13{fill:#fbb03b;}.cls-14{font-size:36px;font-family:MyriadPro-Regular, Myriad Pro;}</style></defs><g class="cls-1"><path class="cls-2" d="M201.11,165c-47.76,45.59-85.4,43.38-133.17-2.21-45.59-43.52-48-84-2.42-127.55,47.76-45.59,73.71-25,133.47,3.11C260.88,67.43,246.71,121.48,201.11,165Z" transform="translate(-22.62 -8.47)"/></g><polygon class="cls-3" points="187.73 53.85 137.48 23.02 86.79 53.11 85.95 167.25 186.89 167.99 187.73 53.85"/><path class="cls-4" d="M157.5,119.87l4.18,0a18.54,18.54,0,0,1,18.38,18.68L179.79,176h0l-41.24-.3h0l.27-37.47a18.54,18.54,0,0,1,18.68-18.4Z" transform="translate(-22.62 -8.47)"/><polygon class="cls-5" points="222.57 53.88 187.73 53.63 137.39 23.02 176.2 23.3 222.57 53.88"/><rect class="cls-6" x="170.17" y="101.98" width="114.36" height="34.84" transform="translate(83.66 337.4) rotate(-89.58)"/><circle class="cls-7" cx="137.39" cy="70.1" r="23.62"/><circle class="cls-8" cx="37.79" cy="167.82" r="10.89"/><path class="cls-9" d="M66.05,181.33a6.78,6.78,0,0,1-4.89,2.08" transform="translate(-22.62 -8.47)"/><circle class="cls-10" cx="37.79" cy="167.82" r="3.4"/><path class="cls-11" d="M36.93,155.63H34.7a1.52,1.52,0,0,0-1.51,1.51v1a1.23,1.23,0,0,0,1.23,1.23h.81" transform="translate(-22.62 -8.47)"/><path class="cls-3" d="M97.89,143H58.76a25,25,0,0,0-25,25v6.75H85.88l18.66-.06A16.84,16.84,0,0,1,98.07,143" transform="translate(-22.62 -8.47)"/><path class="cls-3" d="M122,161.84l-6.9,8.09a13.13,13.13,0,0,1-10,4.61H33.8a2.74,2.74,0,0,0,2.61,1.91h69.28a13.13,13.13,0,0,0,10-4.61l6.36-7.46a3.1,3.1,0,0,1,2.37-1.1h6.49l3.53-1.44Z" transform="translate(-22.62 -8.47)"/><path class="cls-3" d="M75,132.8H95.59a4.87,4.87,0,0,1,4.87,4.87v.41A4.87,4.87,0,0,1,95.64,143H75V132.8Z" transform="translate(-22.62 -8.47)"/><path class="cls-3" d="M56.71,143H75V132.8l-15.79-3.59a2.08,2.08,0,0,0-2.48,1.56,2.12,2.12,0,0,0,0,.44Z" transform="translate(-22.62 -8.47)"/><circle class="cls-12" cx="60.56" cy="140.91" r="1.91"/><line class="cls-9" x1="35.91" y1="134.49" x2="13.83" y2="134.49"/><path class="cls-3" d="M122,161.84l1.23-1.4a21.75,21.75,0,0,0,4-21.14l-4.06-11.85v-.21l16.67,34.5" transform="translate(-22.62 -8.47)"/><path class="cls-13" d="M131.79,120.73a2.58,2.58,0,0,1,1.22,4.85" transform="translate(-22.62 -8.47)"/><path class="cls-3" d="M132.5,145.67a2,2,0,0,1,1.63,3.75" transform="translate(-22.62 -8.47)"/><line class="cls-9" x1="99.37" y1="117.74" x2="91.15" y2="117.74"/><path class="cls-3" d="M127.39,129.72l6.55-.11-3.5-13-5.73,3.18a5.31,5.31,0,0,0-2.55,6h0A5.3,5.3,0,0,0,127.39,129.72Z" transform="translate(-22.62 -8.47)"/><circle class="cls-8" cx="115.69" cy="167.82" r="10.89"/><circle class="cls-10" cx="115.69" cy="167.82" r="3.4"/><rect class="cls-10" x="19.26" y="103.9" width="14.84" height="30.58"/><path class="cls-3" d="M28.12,112.37h23V143H27.64a4.52,4.52,0,0,1-4.52-4.52h0V117.37a5,5,0,0,1,5-5Z" transform="translate(-22.62 -8.47)"/><line class="cls-9" x1="110.2" y1="154.65" x2="112.17" y2="153.28"/><line class="cls-9" x1="113.48" y1="153.28" x2="99.46" y2="153.28"/><path class="cls-8" d="M151.23,176.62a2.08,2.08,0,0,0,2-2.13,1.63,1.63,0,0,0,0-.31,15.16,15.16,0,0,0-29.92,0,2.08,2.08,0,0,0,1.69,2.41,1.63,1.63,0,0,0,.31,0Z" transform="translate(-22.62 -8.47)"/><path class="cls-3" d="M147.24,168.36a15.21,15.21,0,0,0-4.63-3.27" transform="translate(-22.62 -8.47)"/><path class="cls-8" d="M69.68,153.13H54.24c-6.63,0-12,5.37-12,11.34v8.59c0,1.06.33,1.4.74,1.4h26.7A10.67,10.67,0,0,0,80.35,163.8h0A10.67,10.67,0,0,0,69.68,153.13Z" transform="translate(-22.62 -8.47)"/><line class="cls-9" x1="32.44" y1="154.95" x2="42.78" y2="154.95"/><line class="cls-9" x1="32.44" y1="156.84" x2="42.78" y2="156.84"/><line class="cls-9" x1="32.44" y1="158.73" x2="42.78" y2="158.73"/><path class="cls-9" d="M53.1,153.13H68.69a5.48,5.48,0,0,1-5.48,5.48H58.58a5.48,5.48,0,0,1-5.48-5.48Z" transform="translate(-22.62 -8.47)"/><text x="-22.62" y="-8.47"/><text class="cls-14" transform="translate(119.65 83.74) rotate(-2.7)">33</text></svg>