<svg width="55" height="75" viewBox="0 0 55 75" fill="none" xmlns="http://www.w3.org/2000/svg">
<path d="M24.5807 5.41662C24.419 6.59235 26.1958 7.26401 26.1958 7.26401L33.8008 11.2405C36.0278 9.10665 38.1939 7.43504 36.8741 6.25638C37.1976 5.08072 37.0016 4.23859 35.5801 4.24097C35.5801 3.06532 34.9228 2.24058 33.8008 2.56146C33.4544 1.40686 33.1041 1.15043 32.0216 1.72166C31.5363 0.546218 30.7523 0.662866 29.9188 1.21786C29.1101 0.378238 28.3093 0.721849 28.2986 1.72166C27.2523 1.71213 26.9432 1.94723 27.0046 2.89731C25.7722 2.96784 25.808 3.42333 25.8714 4.22959L25.8723 4.24089C25.7106 4.12893 24.7425 4.2409 24.5807 5.41662Z" fill="#381E42"/>
<path d="M11.4887 65.303C10.4352 65.303 10.1719 59.3771 10.1719 56.4142L12.8056 56.085C12.8056 59.1576 12.5422 65.303 11.4887 65.303Z" fill="#381E42"/>
<path d="M21.6947 57.73L20.707 63.8205L23.3408 66.6188L25.9745 59.2115L21.6947 57.73Z" fill="#5A3222"/>
<path d="M11.2964 55.7381L12.2056 61.8408L15.5649 63.7069L15.824 55.8495L11.2964 55.7381Z" fill="#5A3222"/>
<path d="M41.9418 35.1792C42.1642 46.3568 38.3205 57.4413 34.3699 58.1166M41.9418 35.1792C45.5852 34.1367 53.0563 30.9323 53.7936 26.455M41.9418 35.1792C40.0763 35.8377 35.8185 39.3603 33.7116 48.1833C33.1848 50.5536 24.9324 50.7073 20.8721 50.4878L15.6046 49.5002M53.7936 26.455C54.3204 23.4262 48.9651 21.6814 46.2217 21.1875C42.7978 20.3974 38.5404 19.8707 36.8396 19.7061M53.7936 26.455C51.3603 40.4467 51.16 48.63 44.9048 54.4384C42.5549 56.6205 38.208 57.6704 34.3699 58.1166M34.3699 58.1166C32.1857 58.3704 30.1662 58.4288 28.7732 58.389C28.7732 58.389 9.18555 56.0845 7.70395 54.603C6.22235 53.1215 1.97495 37.6813 2.76507 34.5208M15.6046 44.2945L23.6704 45.5496" stroke="#381E42" stroke-width="0.486303"/>
<path d="M16.0987 25.4672L22.683 18.7183L25.3172 23.4919C24.165 24.6442 21.3666 27.245 19.3913 28.4302C16.9222 29.9116 9.51485 31.0639 8.85641 31.7223C7.70416 32.8746 6.22268 35.8375 5.56425 35.8375C4.90582 35.8375 5.2899 34.4658 5.56425 33.6976C4.96062 34.1366 4.2472 35.0474 4.2472 35.8375C4.2472 36.1119 4.18135 36.6606 3.91798 36.6606C3.65461 36.6606 3.36929 36.1119 3.25955 35.8375C3.25955 36.1667 3.16078 36.8252 2.76572 36.8252C2.41756 36.8252 2.38475 36.1433 2.41943 35.681C2.37739 35.9021 2.24916 36.1667 1.94239 36.1667C1.71308 36.1667 1.73149 35.3164 1.83021 34.356C1.75796 34.4658 1.54762 34.6523 1.28425 34.5207C1.02087 34.389 1.72301 33.0392 2.107 32.3807C2.60082 31.5577 3.88477 29.8129 5.06995 29.4178C6.25513 29.0227 12.9163 26.6195 16.0987 25.4672Z" fill="#734330"/>
<path d="M42.928 15.0966C41.767 14.0646 37.6684 13.0538 35.6447 12.6518C35.5617 12.6354 35.4779 12.6349 35.3946 12.6494L31.7888 13.2764C31.7527 13.2827 31.7172 13.2918 31.6825 13.3037L26.0727 15.2271C26.0068 15.2497 25.9447 15.282 25.8885 15.3231L20.335 19.3756C20.071 19.5682 19.977 19.9187 20.109 20.2176L22.7068 26.0968C22.8705 26.4672 23.3151 26.6197 23.6717 26.4276L25.4783 25.4547C25.9197 25.217 26.4598 25.5108 26.5002 26.0105L26.9173 31.1801C26.9429 31.4984 27.184 31.7583 27.4989 31.8112C33.9254 32.8905 36.6151 33.8515 40.3293 35.6908C40.5153 35.7829 40.7334 35.7884 40.9231 35.704L43.1436 34.7171C43.4097 34.5989 43.5737 34.3273 43.5547 34.0368L42.9612 24.9864C42.9414 24.6844 43.1194 24.4043 43.4013 24.294L46.0993 23.2383C46.4438 23.1035 46.623 22.7236 46.4995 22.3749C45.6433 19.9566 44.0139 16.0618 42.928 15.0966Z" fill="#FF5D52"/>
<path d="M30.7707 13.8204C28.0753 15.0972 25.8055 11.125 25.8055 6.3017C25.7518 5.02494 28.359 4.88307 30.3451 4.59934C31.934 4.37236 32.7095 6.20712 32.8986 7.15288C34.1754 5.30865 36.0194 8.14591 34.1754 9.56455L35.4515 13.0107C35.536 13.2387 35.4611 13.4966 35.2625 13.6367C34.0964 14.4594 33.2301 14.7516 31.8694 15.0224C31.6374 15.0686 31.4026 14.9578 31.2877 14.751L30.7707 13.8204Z" fill="#734330"/>
<path d="M23.8193 18.7796L24.5708 21.2358L29.2622 22.6072L27.7047 18.2974C27.6541 18.1574 27.5159 18.0688 27.3675 18.0812L24.1065 18.3552C23.8974 18.3727 23.7579 18.5789 23.8193 18.7796Z" fill="#381E42"/>
<path d="M46.386 31.8872C48.8552 29.4181 47.0445 25.9613 45.857 23.3069L40.7546 25.2823L41.6124 27.6074C39.8364 27.6074 31.7359 24.1506 31.7359 24.1506L30.9129 21.6815C29.9252 20.7487 27.917 18.9819 27.7853 19.377C27.6536 19.7721 28.4755 21.0779 28.9028 21.6815C27.5427 21.2974 24.7236 20.5622 24.3286 20.6939C23.8347 20.8585 23.9993 21.6815 24.8224 21.6815C24.4932 21.901 24.0652 22.4717 24.987 22.9984C24.7675 23.2179 24.5261 23.7556 25.3162 24.1507C25.5674 24.8502 26.6364 26.3851 28.9028 26.9284C31.4771 28.9037 43.9169 34.3563 46.386 31.8872Z" fill="#734330"/>
<path d="M7.37352 36.8251C8.95376 34.1913 21.3104 32.2161 27.2911 31.5576C30.6931 31.832 38.1555 33.0391 40.7893 35.6728C37.3826 38.5206 36.1169 40.9974 34.2049 45.8785C33.9129 45.8237 33.2173 45.8785 32.5588 47.0308C32.0247 47.9655 28.4578 57.0238 27.1299 60.4112C26.8533 61.1165 26.0636 61.4705 25.353 61.2079L20.1901 59.2999C19.5421 59.0604 19.1684 58.3811 19.3132 57.7055L22.5177 42.751C21.2009 42.751 18.3367 42.8827 17.4149 43.4094C16.576 43.8888 16.9459 51.6751 17.3087 56.5458C17.3646 57.2973 16.8176 57.9601 16.0684 58.0418L9.67773 58.739C8.94062 58.8194 8.26994 58.3082 8.16131 57.5747C7.18076 50.9539 5.89639 39.287 7.37352 36.8251Z" fill="#00786D"/>
<path d="M19.5492 63.3267H24.8633C25.2147 63.3267 25.5107 63.589 25.553 63.9378L26.0777 68.2668C26.1134 68.5611 25.9583 68.8457 25.6916 68.9753L15 74.1683C14.7638 74.283 14.4831 74.2547 14.2745 74.0952L12.3919 72.6556C12.078 72.4156 12.0273 71.9625 12.2802 71.659L19.0155 63.5766C19.1475 63.4182 19.343 63.3267 19.5492 63.3267Z" fill="#48E5D6"/>
<path d="M11.6701 60.3715L16.3356 60.7156C16.7458 60.7458 17.0401 61.124 16.9686 61.5292L16.1126 66.3795C16.0616 66.6686 15.8343 66.8945 15.5448 66.9436L3.7014 68.9562C3.42302 69.0035 3.1437 68.8776 2.99478 68.6377L1.76518 66.657C1.55681 66.3213 1.66995 65.8796 2.01406 65.6855L11.2777 60.4592C11.397 60.3919 11.5335 60.3614 11.6701 60.3715Z" fill="#48E5D6"/>
<path d="M33.5473 67.2781C32.4938 67.2781 32.2305 61.3522 32.2305 58.3893L34.8642 58.0601C34.8642 61.1327 34.6008 67.2781 33.5473 67.2781Z" fill="#381E42"/>
<path d="M44.0825 63.327C43.029 63.327 42.7656 58.7179 42.7656 55.755L45.3994 54.1089C45.3994 57.1816 45.136 63.327 44.0825 63.327Z" fill="#381E42"/>
<path d="M46.2226 23.1626L39.6383 25.6317L37.1692 21.5165M30.2556 27.7717C33.6328 29.6009 35.7729 30.5257 40.2967 31.8869M28.9388 34.6224C23.9104 37.4882 24.2686 37.4882 22.1193 45.0107M19.6118 21.7267L16.0297 25.6671L8.86541 28.1746M5.99969 32.1149L5.28326 34.6224M17.4626 65.0707L19.6118 66.8617H16.0297M16.0297 66.8617L16.7461 69.011M16.0297 66.8617L3.49219 69.011M9.58183 61.1303L10.2983 63.996L7.07433 62.205V63.996M14.9551 74.3842L26.0597 69.011M31.6425 15.0638C32.2099 15.0638 34.0542 14.2126 34.9053 13.787M29.089 11.659L29.7983 11.0916M33.4867 7.54502L33.7704 8.67993M29.089 6.83571L30.5076 6.69385M27.1029 6.97757H25.968M29.7983 7.54502L29.9401 8.67993M26.6773 7.82875L26.8192 8.96365M29.089 13.7845C29.9401 14.1681 32.0774 13.7845 32.8445 12.6339M28.2378 8.25434L27.6703 10.3823L29.3727 10.0986L28.2378 8.25434Z" stroke="#381E42" stroke-width="0.486303" stroke-linecap="round" stroke-linejoin="round"/>
<path d="M41.9412 35.1793C42.1635 46.3569 38.3198 57.4413 34.3692 58.1166M41.9412 35.1793C45.5846 34.1368 53.0556 30.9324 53.793 26.4551M41.9412 35.1793C40.0757 35.8378 35.8179 39.3604 33.7109 48.1834" stroke="#381E42" stroke-width="0.486303"/>
</svg>
