<svg width="294" height="142" viewBox="0 0 294 142" fill="none" xmlns="http://www.w3.org/2000/svg">
<g opacity="0.1">
<path d="M35.3163 90.5327C37.6472 89.5622 39.981 88.5947 42.3177 87.6301C40.621 87.3377 38.9359 87.0484 37.2626 86.7619C35.4308 87.8084 33.5843 88.8548 31.7231 89.9013C32.9091 90.1117 34.1068 90.3222 35.3163 90.5327Z" fill="#4C3555"/>
<path d="M17.0955 87.3231C18.9861 86.3001 20.8737 85.277 22.7583 84.2539C24.4492 84.5462 26.1313 84.8356 27.8046 85.1221C25.4209 86.0633 23.0519 87.0075 20.6975 87.9545C19.5115 87.7441 18.3109 87.5336 17.0955 87.3231Z" fill="#4C3555"/>
<path d="M32.8433 87.1127C35.7759 88.7438 38.6205 88.8665 45.437 88.1387C54.508 83.7599 63.4264 79.3665 72.1922 74.9585C75.0808 73.0293 77.9225 71.0942 80.7172 69.1533C75.4155 68.3232 70.1079 67.4901 64.7944 66.6541C49.1594 72.2664 34.0615 77.943 19.5009 83.6839C21.5705 85.5254 23.9748 85.999 29.1444 86.4725C38.9845 82.4328 48.9715 78.4136 59.1052 74.4149C50.3982 78.6533 41.6442 82.8859 32.8433 87.1127Z" fill="#4C3555"/>
<path d="M66.1243 67.4609C69.9288 68.2764 72.3066 68.6096 77.4586 68.8201C81.8503 66.3939 86.1862 63.9619 90.4663 61.5241C90.7599 60.5829 91.0212 59.6416 91.2501 58.7004C87.8155 58.3555 84.3867 58.0106 80.9638 57.6656C76.0965 60.9453 71.15 64.2104 66.1243 67.4609Z" fill="#4C3555"/>
<path d="M92.9047 61.2698C92.7756 61.0652 92.6405 60.8547 92.4996 60.6384C91.7305 60.5215 90.9643 60.4046 90.201 60.2876C88.8888 61.0856 85.2604 63.2955 81.2885 65.7158C77.255 68.1185 63.5075 75.7565 59.474 78.2908C59.43 78.3171 59.4652 78.3435 59.5268 78.3522C61.8342 78.5393 64.1504 78.7264 66.4754 78.9135C71.4836 76.1365 76.4066 73.3479 81.2445 70.5476C82.8209 70.723 87.1627 70.9335 89.4965 70.381C94.1024 69.3112 96.9911 64.2776 97.5459 63.4709C97.9598 62.8307 93.9792 61.5942 92.9047 61.2698Z" fill="#4C3555"/>
<path d="M78.2939 60.2175C78.3643 59.7264 79.9055 58.6566 80.6629 58.183C78.9368 57.9199 76.3652 58.411 75.2996 58.6829C72.3581 58.7092 66.2021 58.8407 64.5905 59.095C62.6177 59.4019 51.0808 64.567 50.5171 65.8385C50.0504 66.8558 53.5907 67.645 54.5947 67.759C48.9466 70.267 43.3425 72.7779 37.7825 75.2918C37.7649 75.3005 37.7561 75.3181 37.7737 75.3268C38.3813 76.6773 46.8359 77.5542 51.1777 77.8348C51.2481 77.8436 51.3274 77.8348 51.3714 77.8085C58.6723 73.1521 78.197 60.6998 78.2939 60.2175Z" fill="#4C3555"/>
<path d="M99.4478 58.7355C100.405 58.3029 101.359 57.8732 102.31 57.4464C100.654 56.7273 98.9869 56.0024 97.3077 55.2716C94.7244 55.7686 92.1528 56.2626 89.5929 56.7536C88.6066 56.6075 87.6173 56.4584 86.625 56.3064C85.3216 56.9553 84.0212 57.6043 82.7236 58.2532C83.3489 58.525 86.308 59.4107 87.6907 59.8229C89.4696 59.8229 91.2486 59.8229 93.0276 59.8229C93.9846 59.8872 94.9416 59.9544 95.8986 60.0246C96.3096 59.8433 96.7147 59.6621 97.114 59.4809C97.6864 59.2266 98.3645 59.1126 98.6464 59.0862C99.1131 59.0775 99.3773 58.8495 99.4478 58.7355Z" fill="#4C3555"/>
<path d="M97.5118 57.4201C97.3474 57.5663 97.1801 57.7124 97.0098 57.8586L97.5118 57.4201ZM100.647 57.806C100.377 57.9287 100.11 58.0486 99.8456 58.1655L100.647 57.806ZM98.7448 58.1216C99.2291 58.1918 99.5109 58.8495 99.0618 59.0073C98.5862 59.1652 95.6712 59.0073 95.5567 58.8232C95.4158 58.6303 98.1547 58.034 98.7448 58.1216Z" fill="#4C3555"/>
<path d="M98.4101 59.1126C98.4101 59.1126 97.7936 59.1038 97.3885 59.0687C97.1595 59.06 96.543 59.0249 95.953 58.9372C95.2132 58.8232 93.5223 59.1038 92.4655 58.946C91.62 58.8144 90.9683 57.8147 90.7217 57.3236C92.1484 57.5692 93.2229 57.3324 92.7033 56.9466C93.8482 57.236 94.9754 56.9641 94.8609 56.6484C95.495 56.9729 96.1555 56.7712 96.1379 56.5695C96.8513 57.008 97.9433 56.78 98.234 56.6309C98.1107 56.8326 99.2379 56.9816 99.784 56.78C99.9425 57.1044 100.638 57.1044 101.246 57.0869C100.163 57.3149 100.876 57.727 102.144 57.5341C99.599 58.0778 102.329 58.5338 103.069 58.0076C103.985 58.148 104.927 57.9726 104.469 57.6832C105.05 57.7709 105.376 57.5867 104.936 57.4727C106.028 57.6393 106.671 57.3149 105.931 57.0343C107.305 57.0693 107.921 56.7887 106.504 56.473C107.596 56.473 107.543 56.2012 106.424 56.2012C107.904 55.982 107.596 55.5084 105.843 55.4909C106.97 55.4295 106.979 55.1313 106.09 55.1138C106.556 55.0349 106.169 54.9297 105.773 54.9998C106.327 54.7718 105.544 54.3246 104.011 54.5175C104.742 54.1843 103.157 53.851 102.179 54.044C102.488 53.6844 101.343 53.3249 99.8016 53.6844C99.8456 53.3424 98.3484 52.9917 97.1155 53.36C97.2828 53.0004 96.1643 52.7373 95.1516 53.0706C94.447 52.6847 93.2933 52.448 92.3598 52.904C91.2325 52.597 89.982 52.597 89.9643 52.9303C88.3703 52.7023 87.6658 52.8075 87.974 53.1407C87.0052 52.9215 86.0805 52.9917 86.3271 53.3687C85.2175 53.0793 84.0462 53.1933 84.2927 53.623C82.7868 53.2372 82.4169 53.623 82.3993 53.8686C81.1399 53.7283 80.9373 54.044 80.999 54.2193C79.1231 54.0878 79.5283 54.5263 79.9686 54.763C78.6564 54.7455 78.5683 55.0173 78.6916 55.1577C76.9919 55.298 77.5291 55.64 78.0311 55.789C76.4987 55.982 76.9567 56.2889 77.353 56.4116C75.9615 56.7186 77.0447 56.9378 77.7669 57.0167C76.437 57.3675 77.5555 57.5516 78.3041 57.5955C77.8373 57.9726 79.0527 58.0515 79.7132 58.034C80.2592 58.4373 81.2456 58.2532 81.6595 58.1129C82.1967 58.3584 83.3152 58.2795 84.5746 57.9112C85.8604 57.5429 85.2351 56.7449 86.0101 56.78C86.7939 56.8063 87.4544 57.2798 87.8683 57.3412C88.2822 57.4026 86.3183 58.2006 85.6666 58.7267C85.0061 59.2441 88.4055 59.9895 89.1277 60.2438C89.8675 60.4893 91.9635 60.8401 93.7425 60.805C95.178 60.7699 95.9706 60.3227 96.182 60.1035C96.2876 59.9895 96.1996 59.9544 95.6712 59.9369C95.6183 59.7703 95.3189 59.779 94.6584 59.8667C94.7288 59.7966 94.3061 59.5072 93.9362 59.5072C94.0507 59.3669 97.1067 59.5335 97.318 59.5949C97.5294 59.665 98.4101 59.1126 98.4101 59.1126Z" fill="#4C3555"/>
<path d="M66.4765 61.8924C66.7642 61.7346 67.0519 61.5796 67.3396 61.4276C67.5245 61.3312 67.9297 61.2961 68.2643 61.3487C68.5931 61.3955 68.919 61.4452 69.2419 61.4978C69.5677 61.5504 69.691 61.6644 69.5061 61.7609C69.2125 61.9129 68.916 62.0678 68.6166 62.2256C68.4405 62.3221 68.0265 62.3572 67.7007 62.3046C66.5206 62.743 65.3405 63.1786 64.1603 63.6112C63.9578 63.6813 63.5791 63.655 63.5615 63.5586C63.5497 63.5469 63.5439 63.5352 63.5439 63.5235C63.535 63.4884 63.447 63.4621 63.3237 63.4709C63.1475 63.4796 63.0331 63.4183 63.1564 63.3744C64.3482 62.9652 65.5401 62.5589 66.7319 62.1555C66.4061 62.1029 66.2916 61.9889 66.4765 61.8924Z" fill="#4C3555"/>
<path d="M74.4012 58.4286C75.7927 58.5163 75.643 58.6741 75.4052 58.7355C74.7182 58.9547 70.9401 61.4715 70.3765 61.6732C69.804 61.8749 67.3117 61.603 66.8625 61.5066C66.387 61.4013 68.3333 59.5949 69.1787 58.9021C69.989 58.2093 72.6839 58.3146 74.4012 58.4286Z" fill="#4C3555"/>
<path d="M81.4645 65.4966C80.9126 65.7479 80.3666 65.9964 79.8264 66.2419C79.7266 66.2829 79.6327 66.3238 79.5446 66.3647C78.1355 66.2069 76.7206 66.0461 75.2997 65.8824C76.0101 65.5433 76.7235 65.2072 77.4398 64.8739C78.7843 65.0844 80.1259 65.2919 81.4645 65.4966Z" fill="#4C3555"/>
<path d="M81.0683 67.2241C81.0243 67.3556 82.4862 67.873 83.226 68.1098C82.3541 68.6447 81.6232 68.899 79.8882 69.2936C79.0956 68.9078 78.303 68.5249 77.5104 68.1449C76.7002 68.0923 76.0044 67.7941 75.7578 67.6538C74.657 67.5486 72.2615 67.3381 71.5041 67.3118C70.7555 67.2855 70.3592 67.0926 70.2448 67.0049C69.047 67.0283 67.8434 67.0546 66.6339 67.0838C67.0919 66.6395 67.5499 66.1952 68.0078 65.7509C69.2408 65.745 70.4884 65.7363 71.7507 65.7246C72.0149 65.4527 73.2567 65.4527 73.8732 65.479C74.4016 65.4001 75.5905 65.4176 76.1189 65.4352C75.9839 65.4936 75.8518 65.555 75.7226 65.6193C76.4741 65.7363 77.2286 65.8532 77.986 65.9701C78.4351 65.8298 79.6152 66.0403 81.0507 66.2858C82.5039 66.5226 81.1036 67.0487 81.0683 67.2241Z" fill="#4C3555"/>
<path d="M80.3825 66.8207C79.9334 66.7155 78.9822 66.4875 78.6476 66.4173C78.4186 66.3735 78.0927 66.2946 77.9342 66.2069L80.3825 66.8207ZM77.9166 66.0402C77.7669 66.0929 77.8021 66.1542 77.9342 66.2069L77.9166 66.0402ZM78.6476 67.1276C78.4362 67.075 78.1896 67.0136 77.899 66.9347L78.6476 67.1276ZM74.9663 66.0315C74.8254 66.0841 74.6405 66.1981 75.072 66.2682C75.4067 66.3209 76.8334 66.6629 77.899 66.9347L74.9663 66.0315ZM73.5132 66.0227C73.8831 66.0052 74.8518 65.9964 75.8118 66.1279C77.0095 66.2946 77.7052 66.3472 77.9342 66.2069L73.5132 66.0227ZM75.8206 65.6369C75.2129 65.5755 73.8302 65.4615 73.2314 65.479L75.8206 65.6369ZM72.7646 66.4787C73.4251 66.5752 73.9799 66.6541 74.5524 66.7155L72.7646 66.4787ZM77.899 66.9347C76.4371 66.8821 75.4859 66.8207 74.5524 66.7155L77.899 66.9347ZM71.8223 66.9259C73.0728 67.075 75.2481 67.3118 76.5692 67.3732L71.8223 66.9259ZM74.5524 66.7155C74.9751 66.7769 75.9263 66.9084 76.4899 66.961C77.1856 67.0312 78.1104 67.0487 77.6524 67.3118C77.5379 67.3819 77.1416 67.3907 76.5692 67.3732L74.5524 66.7155ZM77.2385 67.5047C77.1269 67.4813 77.0183 67.4579 76.9126 67.4346L77.2385 67.5047ZM76.5692 67.3732C76.6807 67.3907 76.7952 67.4112 76.9126 67.4346L76.5692 67.3732ZM76.9126 67.4346C76.9743 67.5222 76.9831 67.6976 76.3578 67.6889C75.7237 67.6801 73.6981 67.4609 72.7558 67.3556L76.9126 67.4346ZM70.1754 66.9435C70.0521 66.7506 69.964 66.3033 70.5453 66.0929L70.1754 66.9435ZM80.6819 67.6187C80.1359 67.7853 78.9734 68.101 78.6652 68.0484L80.6819 67.6187Z" fill="#4C3555"/>
<path d="M80.8229 58.2093C79.9774 58.7092 78.2689 59.8316 78.2336 60.349C78.172 60.8576 72.9143 64.0584 70.9768 65.3738L80.8229 58.2093ZM74.4291 58.9196C74.846 59.1009 75.2657 59.288 75.6885 59.4809C75.0074 59.5335 74.3322 59.589 73.6629 59.6475C72.4828 61.1733 71.2674 62.6963 70.0169 64.2163L74.4291 58.9196ZM89.5945 60.7612C86.7587 62.5326 83.8964 64.301 81.0078 66.0666L89.5945 60.7612ZM92.7473 61.1032C92.8236 61.3078 92.9029 61.5095 92.9851 61.7083C92.5154 61.679 92.0457 61.6527 91.576 61.6293C91.7521 61.8924 91.9283 62.1584 92.1044 62.4273C89.4535 63.4884 83.7819 65.7947 82.2231 66.4875L92.7473 61.1032ZM64.6007 64.3829C64.0958 64.6459 63.5879 64.909 63.0771 65.1721L64.6007 64.3829ZM63.0771 65.1721C63.0771 65.1721 67.0578 65.5229 68.1058 65.6456C67.5157 66.5839 65.2172 67.6012 63.4029 68.4606C60.7873 68.3553 55.2126 68.0133 53.4688 67.5135L63.0771 65.1721ZM63.0771 65.1721C62.126 65.0435 61.1778 64.9149 60.2325 64.7863L63.0771 65.1721ZM78.9998 69.4778C81.8092 69.1709 83.7291 67.7941 84.1166 67.5135C84.3926 67.5486 84.6714 67.5836 84.9533 67.6187L78.9998 69.4778ZM81.316 70.5564C82.6283 70.7669 89.9203 71.0562 91.5496 69.6269L81.316 70.5564ZM86.2479 61.1032C83.1919 60.5507 81.6859 60.1736 80.0743 59.1652L86.2479 61.1032ZM87.1374 67.8993C86.4035 67.8058 85.6754 67.7122 84.9533 67.6187L87.1374 67.8993ZM84.9533 67.6187C85.3525 67.2913 85.7488 66.9639 86.1422 66.6366L84.9533 67.6187ZM52.1478 68.8113C53.9855 69.1679 55.8232 69.5246 57.6609 69.8812C55.4651 70.9919 53.2722 72.0998 51.0822 73.2047C49.0625 72.6259 47.0311 72.0442 44.9879 71.4596C47.3598 70.5769 49.7465 69.6941 52.1478 68.8113ZM80.2504 71.7578C78.7239 71.7052 77.2032 71.6525 75.6885 71.5999C73.4104 72.5762 71.1324 73.5555 68.8544 74.5376C70.7801 74.7188 72.7118 74.9001 74.6493 75.0813C76.5281 73.9764 78.3951 72.8685 80.2504 71.7578Z" fill="#4C3555"/>
<path d="M70.1474 68.4693C71.1044 68.5804 72.0585 68.6915 73.0096 68.8025C73.1593 68.8201 73.2386 68.8727 73.1593 68.9165C72.9186 69.0861 72.6779 69.2585 72.4372 69.4339C72.3755 69.4953 72.1466 69.5216 71.988 69.5041C71.0134 69.3872 70.0388 69.2702 69.0642 69.1533C68.8968 69.1358 68.8352 69.0744 68.9056 69.0305C69.1698 68.8668 69.434 68.7002 69.6983 68.5307C69.7775 68.4781 69.9889 68.4518 70.1474 68.4693Z" fill="#4C3555"/>
<path d="M89.1708 65.6369C89.5172 65.4849 89.8578 65.3387 90.1924 65.1984C90.4038 65.1019 90.3069 64.9792 89.9811 64.9266C89.6582 64.8798 89.3352 64.8301 89.0123 64.7775C88.6865 64.7336 88.2197 64.7687 88.0083 64.8564C87.6796 65.0026 87.3449 65.1487 87.0044 65.2949C86.793 65.3913 86.9075 65.5053 87.2333 65.5579C86.4466 66.0607 85.6628 66.5635 84.8819 67.0662C84.7322 67.1539 85.0404 67.2241 85.3223 67.189C85.3751 67.1773 85.4279 67.1686 85.4808 67.1627C85.5777 67.1539 85.701 67.1627 85.7538 67.189C85.8154 67.2416 86.062 67.2329 86.1237 67.1802C86.8106 66.6892 87.4975 66.1981 88.1845 65.707C88.5103 65.7596 88.9595 65.7246 89.1708 65.6369Z" fill="#4C3555"/>
<path d="M94.5615 61.6293C93.9362 61.2873 93.0291 61.5679 93.0555 61.6644C93.0027 61.945 87.7979 64.4092 87.6834 64.6547C87.5865 64.909 90.1229 65.1809 90.7129 65.1896C91.303 65.2072 95.5038 63.7953 96.1996 63.1113C96.6575 62.6378 95.3453 62.0766 94.5615 61.6293Z" fill="#4C3555"/>
<path d="M34.3858 92.2515C35.2313 91.6259 36.0709 91.0004 36.9046 90.3748C35.3604 89.989 33.831 89.6031 32.3162 89.2173C30.32 89.9305 28.3355 90.6467 26.3628 91.3658C26.4274 91.6756 26.492 91.9825 26.5565 92.2865C26.1514 92.6958 25.7522 93.1021 25.3588 93.5054C27.3785 93.8679 29.407 94.2304 31.4443 94.5928C32.2604 94.2654 33.0853 93.9351 33.9191 93.6019C34.0658 93.1518 34.2214 92.7016 34.3858 92.2515Z" fill="#4C3555"/>
<path d="M12.6041 88.1913C14.2128 87.7528 15.8332 87.3173 17.4654 86.8847C19.1916 87.1945 20.906 87.5014 22.6086 87.8055C21.1056 88.6122 19.5908 89.419 18.0643 90.2258C17.1073 90.3018 16.1532 90.3807 15.2021 90.4625C14.11 90.7139 13.018 90.9594 11.9259 91.1991C10.1587 90.7256 8.35916 90.2462 6.52734 89.761C7.23189 89.4219 7.93644 89.0828 8.64098 88.7438C9.96788 88.5567 11.2889 88.3725 12.6041 88.1913Z" fill="#4C3555"/>
<path d="M36.8054 90.3924C35.3258 90.0065 33.8551 89.6207 32.3931 89.2348L36.8054 90.3924ZM35.7573 91.1991C34.8062 91.0354 33.8639 90.8717 32.9304 90.7081L35.7573 91.1991ZM35.0176 92.0585C34.0723 91.889 33.1388 91.7253 32.217 91.5674L35.0176 92.0585ZM32.4636 94.1807C30.3676 93.8065 28.3009 93.4382 26.2636 93.0757L32.4636 94.1807ZM27.5846 91.927C27.4143 91.6288 27.2382 91.3336 27.0562 91.0413L27.5846 91.927Z" fill="#4C3555"/>
<path d="M17.4313 86.9198C19.1457 87.2121 20.8454 87.5014 22.5305 87.7879L17.4313 86.9198ZM15.3353 87.4634C16.1749 87.6798 17.0115 87.8961 17.8452 88.1124L15.3353 87.4634ZM12.975 87.9458C13.8146 88.1621 14.6454 88.3784 15.4674 88.5947L12.975 87.9458ZM7.40032 89.3401C9.29085 89.8311 11.1315 90.3164 12.9222 90.7957L7.40032 89.3401ZM15.9518 90.0416C16.9088 90.0007 17.8599 89.9598 18.8052 89.9188L15.9518 90.0416Z" fill="#4C3555"/>
<path d="M67.8152 69.013C67.3631 68.9429 66.9022 68.8698 66.4325 68.7938L67.8152 69.013ZM68.8544 71.0825C66.9756 71.9361 65.1027 72.7896 63.2356 73.6432C62.6368 73.915 61.7473 74.1167 60.7697 74.2132C59.8626 74.3096 59.0612 74.485 58.4711 74.7305C57.0033 75.3385 55.5326 75.9495 54.0589 76.5633L68.8544 71.0825ZM31.6015 85.7622C26.6697 84.9993 24.327 84.3855 21.6234 82.5088L31.6015 85.7622ZM34.5077 85.8762C37.5901 87.3056 40.3819 87.6651 49.083 86.9987L34.5077 85.8762Z" fill="#4C3555"/>
</g>
<path d="M26.5586 86.8402V79.575H21.3172L22.5627 86.8402H26.5586Z" fill="#714432"/>
<path d="M6.0625 86.8402V79.575H11.3039L10.0584 86.8402H6.0625Z" fill="#714432"/>
<path d="M18.5145 81.5639C23.6602 83.5531 26.044 82.9044 29.6719 79.54L26.1949 48.0748L23.2888 35.1182H11.5606L2.73854 79.54C6.98792 82.2356 9.63156 82.3343 14.5186 81.5639L17.6323 50.8941L18.5145 81.5639Z" fill="#381E42"/>
<path d="M13.2214 36.2084C16.2872 36.5998 18.011 36.523 21.1094 35.43L19.3969 18.4085L16.8021 13.0115L10.7304 13.9975L13.2214 36.2084Z" fill="#414642"/>
<path d="M20.3302 17.2664L19.448 16.2285H17.9431C18.1506 18.0621 18.7422 23.1201 19.448 28.6832C20.1498 34.2149 22.14 52.0405 23.2509 57.8029C23.2618 57.8593 23.3155 57.8909 23.3718 57.8797L28.5111 56.862L25.3649 37.4857C26.4636 37.3651 29.0973 36.5001 29.6202 34.8417C30.6461 31.5879 25.7801 21.6085 25.1054 19.9998C24.5657 18.7128 21.2124 17.5605 20.3302 17.2664Z" fill="#00CBB9"/>
<path d="M11.9233 19.446C11.4666 18.5326 11.1795 16.1247 11.093 15.0349C9.97204 15.0349 9.13826 16.6609 8.86149 17.474C7.37385 18.3562 4.24287 20.3489 3.62013 21.2623C2.84171 22.404 1.44146 35.2568 2.42746 37.7478C3.21626 39.7405 6.18438 40.1695 6.9109 40.083L5.07762 58.7887C5.07479 58.8176 5.08385 58.8461 5.10355 58.8674C7.19663 61.1283 14.0244 60.1973 17.2814 59.4265C17.334 59.4141 17.3665 59.368 17.3583 59.3146C15.7271 48.7254 12.3787 20.3567 11.9233 19.446Z" fill="#00CBB9"/>
<path d="M20.7487 10.7798V7.61426L16.2338 5.01953L14.0542 9.89763H12.186V14.5682C12.7672 14.9003 15.1267 15.7098 16.2338 16.0731L18.8285 14.5682L20.4373 14.153V12.8037C20.4373 12.181 20.6449 11.7831 20.7487 11.662C20.9562 11.496 20.8352 11.0047 20.7487 10.7798Z" fill="#714432"/>
<path d="M18.466 8.91154L18.6736 9.84565M20.3342 8.75586V9.63807M19.7634 9.84565C20.0747 9.84565 20.905 10.9873 20.8531 11.4025C20.8012 11.8176 19.2444 12.3366 18.9849 12.0252C18.7255 11.7139 19.4001 9.84565 19.7634 9.84565Z" stroke="#381E42" stroke-width="0.486303" stroke-linecap="round" stroke-linejoin="round"/>
<path d="M20.6445 11.7657C20.6445 11.7657 20.3504 11.9214 20.1256 11.9733C20.0045 12.0252 19.6689 12.129 19.2953 12.129C18.8282 12.129 18.3093 13.115 17.6346 13.115C17.0949 13.115 15.7491 11.4543 15.1437 10.624C16.0778 10.6759 16.3529 9.93758 15.7145 9.37855C16.5449 9.58612 16.804 8.77266 16.4411 8.23686C17.0638 8.65202 17.1801 8.0995 16.96 7.71791C17.7385 8.34065 18.0249 7.61033 17.9979 7.25086C18.1536 7.66602 18.8314 7.61953 18.8801 7.09518C19.2791 7.6463 19.6067 7.45844 19.8661 7.25086C19.6067 7.97739 20.3649 8.53025 20.7483 7.82171C20.1256 9.53423 21.8858 9.61128 21.6824 8.44444C22.2533 8.44444 22.5077 7.85897 21.9938 7.45844C22.3571 7.45844 22.3073 7.01957 21.9938 6.93949C22.6684 6.93949 22.627 6.17063 21.9938 5.84971C22.6685 5.53834 22.6523 4.83726 21.6824 4.65613C22.1838 4.35639 21.89 3.87771 21.3711 4.18908C21.8338 3.37289 21.2154 2.58034 20.3851 3.0474C20.8449 2.61627 20.5408 2.0614 20.1256 2.26898C20.2575 1.99767 19.9699 1.90571 19.8661 2.16519C19.8926 1.57741 19.0877 0.971615 18.5687 1.75003C18.5893 0.935794 17.5309 0.764118 17.2714 1.38677C17.0591 0.648659 16.1816 0.296939 15.8183 1.38677C15.5074 0.738217 14.4691 0.504518 14.2615 1.54245C13.9845 0.816177 13.2236 0.660202 13.0679 1.54245C12.3771 1.02421 11.6149 0.919675 11.6149 2.0095C10.8077 1.76725 10.2137 2.11325 10.5251 2.73603C9.56731 2.75334 9.33151 3.15115 9.79854 3.67013C9.12928 3.53042 8.76067 3.92957 9.2277 4.55234C8.44212 4.34005 7.98225 4.86367 8.50117 5.59021C7.42176 5.2996 7.60166 6.12646 7.82654 6.57621C7.07926 6.65924 7.273 7.30274 7.46328 7.61411C6.42538 7.90472 7.03082 8.60011 7.46328 8.91148C6.79902 9.2436 7.01352 9.77639 7.2038 10.0013C6.49804 10.7485 7.08272 11.2121 7.46328 11.3505C6.88206 12.1393 7.39408 12.5787 7.72275 12.6998C7.30759 13.6546 8.06871 13.755 8.50117 13.6858C8.16904 14.7237 8.91633 14.741 9.33149 14.6199C9.45603 15.4502 10.1445 15.2426 10.4732 15.035C11.1374 15.6163 11.4419 15.0005 11.5111 14.6199C12.03 14.9313 12.4971 14.4642 12.7565 13.4263C13.016 12.3884 11.9262 11.0911 12.3414 10.9354C12.7565 10.7797 13.535 11.4543 13.7944 11.4543C14.0539 11.4543 13.8982 13.4782 14.1058 14.6199C14.3134 15.7616 16.7524 16.1767 17.3752 16.4362C17.9979 16.6957 19.3991 16.7476 20.2294 16.1767C20.8936 15.7201 20.7829 14.6718 20.6445 14.2047C20.5777 13.9778 20.4951 13.9305 20.2294 14.0491C20.0209 13.7528 19.8933 13.8641 19.6585 14.2047C19.612 14.0479 19.1112 13.6494 18.932 13.7377C18.842 13.4515 20.4723 12.8947 20.6445 12.9593C20.8197 13.025 20.6445 11.7657 20.6445 11.7657Z" fill="#381E42"/>
<path d="M7.41014 25.8809V24.7911C7.41014 24.5618 7.59601 24.376 7.8253 24.376H8.49993C8.72921 24.376 8.91508 24.5618 8.91508 24.7911V25.8809C8.91508 26.1102 8.72921 26.2961 8.49993 26.2961L7.91473 29.7172C7.88254 29.9054 7.63695 29.9576 7.53106 29.7987L7.4807 29.7232C7.4421 29.6653 7.36325 29.6508 7.30663 29.6913C7.21496 29.7568 7.09075 29.675 7.11469 29.5649L7.8253 26.2961C7.59601 26.2961 7.41014 26.1102 7.41014 25.8809Z" fill="white"/>
<path d="M8.15689 17.2533C8.95735 17.0288 9.0268 17.3449 8.96148 17.531C8.83115 18.122 9.38248 23.8483 9.28491 24.3736C9.18733 24.8989 7.56301 25.115 7.21831 25.0664C6.8736 25.0177 6.1121 21.1133 5.8798 19.6039C5.6475 18.0945 7.15632 17.534 8.15689 17.2533Z" fill="#381E42"/>
<path d="M19.2891 28.2419V30.0581V30.3724L16.4601 30.6868V28.2419H19.2891Z" fill="#381E42"/>
<path d="M21.1066 31.4902C21.2463 31.7417 22.6549 32.2702 23.3418 32.5031C23.5372 33.7201 23.4685 34.3971 23.0275 35.6115L20.3033 34.1795C19.8003 34.3192 19.0692 33.9816 18.7665 33.7953C18.0447 33.9234 16.4894 34.2214 16.0423 34.3891C15.5953 34.5567 15.1575 34.3192 14.9945 34.1795L13.0736 35.367L12.3402 32.538L14.3659 31.4204C14.1982 30.8336 14.8781 30.4774 15.239 30.3726C15.4346 30.0653 16.0889 29.7556 16.3916 29.6392V30.0932H17.9982C18.068 29.709 18.9412 29.7439 19.9889 29.7788C21.0367 29.8138 20.9319 31.1759 21.1066 31.4902Z" fill="#714432"/>
<path d="M20.2652 30.9662C19.9043 30.8963 19.1196 30.7496 18.8681 30.7217C18.6863 30.7015 18.4227 30.6462 18.2395 30.5424M18.0299 30.2327C18.0152 30.3652 18.106 30.4667 18.2395 30.5424M19.7064 32.0139C19.5297 31.9752 19.313 31.9284 19.0777 31.8786M16.4583 31.0709C16.435 31.199 16.4652 31.4551 16.7726 31.4551C17.016 31.4551 18.1813 31.6889 19.0777 31.8786M15.655 31.4551C15.8296 31.3154 16.3465 31.029 17.0171 31.0011C17.8553 30.9662 18.2744 30.852 18.2395 30.5424M16.4583 30.093C16.0624 30.1597 15.1939 30.343 14.8866 30.5424M15.7597 32.5029C16.234 32.4905 16.6303 32.4728 17.0171 32.4258M19.0777 31.8786C18.2288 32.2011 17.6351 32.3508 17.0171 32.4258M15.7597 33.5856C16.6246 33.5122 18.0888 33.3255 18.8681 33.0473M17.0171 32.4258C17.3081 32.4166 17.981 32.3842 18.3443 32.3283C18.7983 32.2584 19.3222 32.0139 19.392 32.6426C19.4088 32.7931 19.2008 32.9285 18.8681 33.0473M19.392 33.0966L19.1301 33.072M18.8681 33.0473L19.1301 33.072M19.1301 33.072C19.2756 33.2083 19.4793 33.5227 19.1301 33.6904C18.7808 33.858 17.4129 34.0396 16.7726 34.1095M14.8866 34.1095C14.5955 33.7787 14.0344 32.9789 14.1182 32.4258M21.3828 32.3283C21.2897 32.7823 21.0475 33.6904 20.824 33.6904" stroke="#381E42" stroke-width="0.486303" stroke-linecap="round" stroke-linejoin="round"/>
<path d="M11.1972 15.0349C11.2664 16.1939 11.5293 18.7506 12.0275 19.7054C12.5257 20.6603 13.1551 28.0261 13.553 31.0014M8.65437 18.1486L9.84795 18.8232L8.96574 19.7054L11.7681 29.1503M18.1511 17.2664L19.7079 29.4097M20.0712 17.0069L20.8496 18.0448L20.0712 18.3043L21.2129 19.6016C21.0918 22.3002 20.8496 28.1227 20.8496 29.8249M8.96574 31.0014V32.8867M8.96574 32.8867C8.96574 32.8867 11.5778 32.4023 12.287 32.3158C13.0098 34.2064 12.8686 36.7329 12.8232 38.82C11.1972 39.3735 7.55075 40.3768 5.97315 39.9617M8.96574 32.8867L6.95317 32.9996M22.7689 36.1909C23.9098 34.8246 23.2195 31.7799 23.0811 31.1571L23.6511 31.1144M25.4156 37.4883C26.4016 37.4883 30.7509 35.9314 29.7228 32.8867M16.8537 18.8232C14.7455 18.6762 13.6054 18.4013 11.7681 17.0069M25.1561 31.0014L23.6511 31.1144M23.6511 31.1144L23.0811 28.9776M6.60582 42.7256L11.1215 43.073V51.0623L5.21638 49.6728L6.60582 42.7256ZM26.4053 39.9617L23.6511 40.9888V48.2834L27.7947 47.5887L26.4053 39.9617Z" stroke="#381E42" stroke-width="0.486303" stroke-linecap="round" stroke-linejoin="round"/>
<path d="M16.6496 36.8945L18.6366 36.6785C18.7435 36.6669 18.8415 36.7387 18.8626 36.8441L19.092 37.9912C19.116 38.1112 19.0316 38.2257 18.91 38.2384L16.8464 38.4534C16.7347 38.465 16.634 38.3857 16.6191 38.2743L16.4663 37.1282C16.4509 37.0127 16.5337 36.9071 16.6496 36.8945Z" fill="white"/>
<path d="M23.4453 26.2964V25.2067C23.4453 24.9774 23.2595 24.7915 23.0302 24.7915H22.3555C22.1263 24.7915 21.9404 24.9774 21.9404 25.2067V26.2964C21.9404 26.5257 22.1263 26.7116 22.3555 26.7116L22.9407 30.1328C22.9729 30.3209 23.2185 30.3731 23.3244 30.2142L23.3748 30.1387C23.4134 30.0808 23.4922 30.0664 23.5488 30.1068C23.6405 30.1723 23.7647 30.0905 23.7408 29.9804L23.0302 26.7116C23.2595 26.7116 23.4453 26.5257 23.4453 26.2964Z" fill="white"/>
<path d="M21.5354 17.4664C20.8427 17.0068 20.7203 17.7837 20.8323 17.9461C21.1137 18.4819 21.3032 24.4559 21.5357 24.9369C21.7681 25.418 23.392 25.1988 23.7118 25.0611C24.0315 24.9234 24.4784 21.1606 24.0143 19.7056C23.6985 18.7155 22.4201 18.0534 21.5354 17.4664Z" fill="#381E42"/>
<path d="M29.0591 90.1571L27.4802 86.0784L21.7961 85.4509L20.8487 91.0983L22.7434 92.667L24.0066 95.177H31.2695V92.667L29.0591 90.1571Z" fill="#FEB702"/>
<path d="M3.64696 89.8087L5.69043 85.9418L11.4089 85.981L11.6916 91.7003L9.62704 93.0375L8.08001 95.3832L0.866531 94.5367L1.15904 92.0439L3.64696 89.8087Z" fill="#FEB702"/>
<path d="M27.4486 86.1456L21.8908 85.4509M28.1433 87.8824H25.0171M29.1854 89.6192H26.0591M31.2695 94.1349H23.975M22.9329 91.7034L20.8487 90.314" stroke="#381E42" stroke-width="0.486303" stroke-linecap="round" stroke-linejoin="round"/>
<path d="M5.71396 86.0122L11.3148 85.9699M4.82157 87.6562L7.9265 88.0206M3.58418 89.2598L6.68912 89.6241M0.987974 93.5018L8.23282 94.3519M9.55117 92.0584L11.783 90.9213" stroke="#381E42" stroke-width="0.486303" stroke-linecap="round" stroke-linejoin="round"/>
<path d="M15.9848 38.5574H14.9427M19.1111 42.031V48.2983C19.1111 48.956 18.8498 49.5868 18.3847 50.0519V50.0519C17.9574 50.4792 17.7008 51.0478 17.6631 51.6508L17.3743 56.2727M15.2901 79.5458C10.2349 79.708 7.4697 79.3285 2.78516 76.7669M17.7216 78.8511C22.506 80.4497 25.2271 80.2447 30.2266 76.4196" stroke="white" stroke-width="0.486303" stroke-linecap="round" stroke-linejoin="round"/>
<g opacity="0.1">
<path d="M251.094 103.228C252.634 103.89 254.154 104.552 255.657 105.214C255.753 105.26 255.986 105.272 256.185 105.237C256.714 105.144 257.237 105.054 257.753 104.968C258.027 104.922 258.137 104.817 257.993 104.758C256.422 104.112 254.842 103.465 253.252 102.819C253.136 102.784 252.937 102.772 252.746 102.807C252.271 102.877 251.793 102.948 251.314 103.018C251.06 103.053 250.937 103.158 251.094 103.228Z" fill="#4C3555"/>
<path d="M258.717 103.835C259.752 104.069 259.649 104.653 259.477 104.91C258.888 104.965 258.299 105.015 257.71 105.062C257.587 104.883 257.461 104.704 257.333 104.525C256.724 104.443 255.504 104.221 255.504 104.081C255.518 103.917 257.409 103.532 258.717 103.835Z" fill="#4C3555"/>
<path d="M206.771 136.17C208.548 135.593 210.336 135.017 212.135 134.441C211.715 133.919 211.272 133.393 210.806 132.864C209.057 133.557 207.321 134.25 205.6 134.943C206.006 135.348 206.397 135.757 206.771 136.17Z" fill="#4C3555"/>
<path d="M227.843 138.377C229.25 137.552 230.647 136.722 232.036 135.889C230.455 135.874 228.898 135.854 227.363 135.831C226.244 136.695 225.114 137.56 223.972 138.424C225.237 138.408 226.528 138.393 227.843 138.377Z" fill="#4C3555"/>
<path d="M210.006 131.918C224.529 125.399 239.613 117.456 253.184 111.358C260.226 112.807 265.467 113.297 273.277 112.947C261.658 120.516 249.382 128.078 236.448 135.632C235.769 136.006 234.543 136.286 233.728 136.251C230.768 136.135 227.905 136.018 225.137 135.901C224.431 135.878 224.336 135.55 224.918 135.188C230.759 131.372 236.409 127.553 241.866 123.729C232.974 126.587 221.784 131.96 213.609 134.826C212.76 135.13 211.835 135.165 211.588 134.896C210.912 134.188 210.195 133.479 209.437 132.77C209.177 132.548 209.417 132.198 210.006 131.918Z" fill="#4C3555"/>
<path d="M272.25 103.275C273.394 104.186 279.1 101.721 279.285 101.557C276.84 101.078 269.229 102.317 271.291 102.901C269.29 103.31 264.632 104.793 262.583 105.482C257.822 104.069 255.507 105.342 253.91 106.183C252.629 106.861 253.856 108.438 254.685 109.232C252.081 110.482 243.251 115.271 239.298 117.409C239.298 117.409 249.471 113.367 253.657 111.405C257.877 109.442 268.297 104.63 272.25 103.275Z" fill="#4C3555"/>
<path d="M264.548 114.641C265.165 114.462 265.781 114.286 266.398 114.115C266.631 114.057 266.953 114.045 267.035 114.127C267.412 114.454 267.727 114.652 268.289 114.874C268.426 114.933 268.316 115.026 268.056 115.085C267.476 115.217 266.891 115.349 266.302 115.482C266.11 115.529 265.884 115.529 265.774 115.482C265.309 115.264 264.84 115.046 264.37 114.828C264.267 114.769 264.343 114.687 264.548 114.641Z" fill="#4C3555"/>
<path d="M252.136 112.982C255.767 113.987 258.082 114.349 263.885 114.08L252.136 112.982ZM249.704 117.129C246.79 119.559 243.769 121.992 240.641 124.43L249.704 117.129ZM226.843 133.915C228.757 133.97 230.709 134.028 232.701 134.09L226.843 133.915ZM238.983 134.266C236.85 134.203 234.756 134.145 232.701 134.09L238.983 134.266ZM232.701 134.09C241.401 128.873 249.772 123.647 257.815 118.414L232.701 134.09ZM215.692 134.114C215.199 133.514 214.683 132.914 214.144 132.315L215.692 134.114ZM212.274 130.504C212.922 131.112 213.546 131.715 214.144 132.315L212.274 130.504ZM214.144 132.315C222.282 129.278 233.424 123.737 242.257 120.715L214.144 132.315Z" fill="#4C3555"/>
<path d="M254.876 104.022C254.656 103.835 253.67 103.976 251.834 104.209C250.025 104.431 250.279 104.805 251.224 104.898C251.238 104.898 251.252 104.898 251.245 104.91C250.587 105.225 251.478 105.319 252.046 105.319C252.06 105.319 252.067 105.331 252.06 105.331C251.032 105.798 252.601 105.856 253.238 105.763C253.259 105.763 253.355 105.774 253.341 105.786C253.225 105.891 253.088 106.102 253.697 106.16C254.533 106.253 257.232 105.354 256.828 105.144C256.581 105.015 256.136 105.062 255.835 105.109C255.8 105.12 255.752 105.097 255.766 105.085C256.52 104.758 256.088 104.536 254.917 104.723C254.882 104.723 254.855 104.711 254.869 104.7C255.129 104.606 255.355 104.478 255.287 104.396C255.184 104.314 254.704 104.303 254.245 104.338C254.204 104.349 254.204 104.338 254.232 104.326C254.533 104.268 255.04 104.186 254.876 104.022Z" fill="#4C3555"/>
<path d="M271.261 98.6136C272.035 98.2632 271.96 97.3053 271.823 96.8731C272.392 96.7213 273.7 96.3591 274.31 96.0788C275.091 95.7283 281.572 96.511 286.292 97.0483C291.019 97.5857 285.874 98.9524 285.25 99.2094C284.764 99.4197 287.1 100.494 287.559 100.95C284.901 101.534 278.79 102.515 278.79 102.515C278.79 102.515 276.838 101.838 276.749 101.511C271.323 102.387 270.699 100.868 270.782 99.8052C267.959 99.6299 270.302 99.0575 271.261 98.6136Z" fill="#4C3555"/>
<path d="M272.989 96.0204C268.447 96.5928 271.441 97.7493 275.044 97.0717C274.222 97.539 274.017 98.2516 278.175 97.9478C278.025 98.7422 278.99 98.6954 281.402 98.2866C284.677 97.7493 287.013 98.4151 284.738 99.2094C285.04 99.4353 285.336 99.665 285.629 99.8986C286.65 100.378 289.91 99.9454 288.753 99.2211C291.281 99.2328 292.363 98.4852 290.774 98.38C292.562 98.4034 294.603 97.6558 291.966 97.4339C294.213 96.9666 294.069 96.2073 291.507 96.3708C293.391 95.74 291.911 94.9574 289.678 95.2377C290.986 94.5252 288.39 94.0579 286.177 94.642C285.827 93.8243 281.422 93.7776 280.737 94.5602C278.737 93.9645 276.079 94.5252 276.079 95.1326C273.811 94.5018 270.845 95.5064 272.989 96.0204Z" fill="#4C3555"/>
<path d="M275.893 101.627C276.078 101.627 276.332 101.616 276.599 101.592C278.64 101.464 282.764 101.02 283.812 100.518L275.893 101.627ZM283.484 98.567C283.365 98.7383 283.246 98.9135 283.127 99.0926L283.484 98.567ZM274.55 98.3216C274.523 98.5008 274.486 98.6799 274.441 98.859L274.55 98.3216ZM272.687 100.518C272.984 100.479 273.281 100.444 273.578 100.413L272.687 100.518Z" fill="#4C3555"/>
<path d="M287.087 100.903C286.863 100.677 286.628 100.455 286.381 100.237C287.423 100.331 290.944 101.125 291.924 101.429C292.869 101.721 291.992 102.258 291.437 102.492C295.685 107.492 291.245 109.805 281.134 113.216C279.339 115.014 275.283 118.928 274.283 119.827C272.612 120.575 263.356 121.895 258.568 121.801C258.006 121.778 257.883 121.579 258.225 121.369C261.582 119.243 265.466 116.066 266.083 115.493C266.836 115.314 267.595 115.135 268.357 114.956C267.987 114.769 267.138 114.267 266.782 113.8C266.398 113.332 252.616 111.757 253.548 111.57C252.287 111.161 262.829 107.405 264.939 105.478C266.953 103.574 273.454 101.78 276.955 100.705C276.687 100.565 278.941 102.655 278.79 102.515C278.626 102.363 287.087 100.903 287.087 100.903Z" fill="#4C3555"/>
<path d="M206.545 133.857C206.7 134.028 206.851 134.203 206.997 134.382C206.878 134.437 206.755 134.491 206.627 134.546C207.052 134.966 207.459 135.387 207.847 135.808C208.107 135.722 208.365 135.636 208.621 135.551C208.118 135.971 207.612 136.395 207.1 136.824C205.67 137.322 204.399 138.054 202.997 138.553C202.623 138.592 202.253 138.63 201.888 138.669C200.298 137.369 198.501 136.061 196.496 134.744C196.455 134.721 196.414 134.686 196.407 134.663C196.316 134.445 196.222 134.23 196.126 134.02C196.065 133.903 196.229 133.728 196.517 133.623C197.165 133.397 197.811 133.167 198.455 132.934C198.723 132.84 199.017 132.817 199.236 132.864C200.798 133.269 199.667 136.185 201.156 136.59C201.218 136.602 203.819 133.868 203.901 133.868C204.782 133.868 205.664 133.864 206.545 133.857Z" fill="#4C3555"/>
<path d="M223.478 137.712C223.953 137.712 224.432 137.715 224.917 137.723C224.843 137.786 224.768 137.852 224.69 137.922C226.001 137.898 227.333 137.883 228.684 137.875C228.885 137.75 229.084 137.63 229.28 137.513C229.408 137.824 229.532 138.136 229.65 138.447C228.572 139.133 227.49 139.814 226.403 140.492C225.914 140.647 225.426 140.799 224.937 140.947C220.521 141.204 221.142 141.465 217.209 141.73C217.12 141.742 217.052 141.73 216.997 141.718C216.682 141.656 216.365 141.594 216.045 141.531C215.839 141.496 215.846 141.368 216.045 141.216C216.515 140.881 216.986 140.546 217.456 140.211C217.621 140.095 217.901 139.978 218.169 139.931C218.625 139.5 219.67 139.3 219.67 139.3C219.67 139.3 222.341 138.031 223.478 137.712Z" fill="#4C3555"/>
<path d="M204.126 133.997C204.126 133.997 207.127 134.289 207.25 133.249C207.305 132.198 204.126 133.997 204.126 133.997ZM204.126 133.997C205.291 134.055 207.353 134.289 206.264 134.826C205.195 135.352 204.414 134.499 204.126 133.997ZM204.126 133.997C203.501 134.083 200.363 136.913 199.738 136.999L204.126 133.997ZM204.126 133.997C203.715 133.779 200.788 136.31 200.368 136.099L204.126 133.997Z" fill="#4C3555"/>
<path d="M264.939 104.711C260.171 106.405 257.308 107.714 251.533 110.938L264.939 104.711ZM271.372 102.399C270.886 103.041 271.797 103.193 273.489 103.45C274.147 103.567 277.147 102.352 277.147 102.352L271.372 102.399ZM280.237 103.018C280.675 103.259 281.109 103.5 281.539 103.742C284.142 103.52 289.827 102.948 291.437 102.492C293.047 102.025 292.061 101.487 291.362 101.289L280.237 103.018ZM281.347 106.382C277.873 109.045 276.586 110.599 268.283 112.83L281.347 106.382ZM266.782 113.8C267.104 114.36 268.296 115.447 270.797 115.236C273.927 114.979 280.723 113.613 286.033 111.452L266.782 113.8ZM277.079 104.665C269.81 107.386 267.734 108.66 266.953 110.576L277.079 104.665ZM266.392 105.494C262.898 107.083 255.602 110.611 253.054 111.744C250.526 112.888 241.962 116.58 241.962 116.58L266.392 105.494ZM221.424 138.447C221.424 138.447 226.007 139.675 223.972 139.5C222.006 139.313 221.424 138.447 221.424 138.447ZM221.424 138.447C222.945 137.945 226.014 137.081 225.802 137.606C225.582 138.132 222.76 138.377 221.424 138.447ZM221.424 138.447C220.835 138.728 220.25 139.012 219.67 139.3L221.424 138.447ZM221.424 138.447C220.533 138.588 219.67 139.3 219.67 139.3L221.424 138.447Z" fill="#4C3555"/>
</g>
<path d="M198.276 58.4978C197.504 58.5493 195.99 59.2085 196.114 61.4332C196.237 63.6579 193.899 65.656 192.715 66.3769" stroke="#381E42" stroke-width="0.462078" stroke-linecap="round" stroke-linejoin="round"/>
<path d="M197.504 132.963C197.874 131.932 198.006 131.117 198.122 129.101L202.293 128.174C201.922 129.904 202.86 132.603 203.375 133.736C202.345 134.096 200.068 134.817 199.203 134.817C198.338 134.817 197.71 133.581 197.504 132.963Z" fill="#694638"/>
<path d="M221.674 127.149C221.372 126.095 221.002 125.357 219.918 123.653L222.761 120.463C223.472 122.084 225.809 123.726 226.889 124.344C226.264 125.239 224.838 127.154 224.136 127.66C223.434 128.165 222.202 127.53 221.674 127.149Z" fill="#694638"/>
<path d="M195.343 133.272C197.073 132.036 198.021 132.654 198.278 133.117C199.051 134.353 198.742 134.353 200.287 134.353C201.831 134.353 202.14 133.581 203.376 133.581C204.612 133.581 204.612 138.988 204.149 139.143C203.685 139.297 192.407 138.988 191.017 138.988C189.627 138.988 188.391 138.525 188.391 137.752C188.391 136.98 189.009 136.671 189.781 136.516C190.554 136.362 193.18 134.817 195.343 133.272Z" fill="#FEB702"/>
<path d="M220.101 128.663C220.783 126.649 221.913 126.597 222.392 126.822C223.741 127.374 223.491 127.554 224.744 126.651C225.998 125.749 225.797 124.941 226.8 124.219C227.803 123.497 230.963 127.884 230.677 128.281C230.392 128.677 221.059 135.017 219.931 135.83C218.803 136.642 217.529 136.988 217.078 136.361C216.626 135.735 216.947 135.123 217.484 134.546C218.02 133.969 219.248 131.181 220.101 128.663Z" fill="#FEB702"/>
<path d="M196.887 129.101C196.332 111.402 196.355 102.162 197.66 88.3148C201.934 87.0789 210.7 85.4412 211.565 88.7783C212.43 92.1153 211.925 101.601 211.565 105.927L210.792 106.39L212.028 106.545L211.565 107.317L225.624 118.904C225.129 119.522 220.68 123.694 218.517 125.702L207.857 118.132C207.857 119.368 207.734 122.149 207.239 123.385C206.745 124.621 206.724 128.122 206.776 129.719C206.371 130.19 199.687 129.944 196.887 129.101Z" fill="#381E42"/>
<path d="M197.812 90.1687C197.812 109.171 196.423 108.862 207.236 117.823M203.066 90.1687L205.383 97.4298" stroke="white" stroke-width="0.462078" stroke-linecap="round" stroke-linejoin="round"/>
<path d="M197.505 86.3064V84.607L210.482 83.989C210.946 84.298 211.316 85.1941 211.563 86.3064C211.811 87.4187 212.284 88.5208 212.799 88.9328C210.997 89.0358 208.072 89.2418 205.847 89.2418C203.623 89.2418 199.153 89.0358 197.196 88.9328C196.887 87.3878 197.505 86.9244 197.505 86.3064Z" fill="#F1CCDC"/>
<path d="M193.798 69.1578C195.528 70.1464 196.682 70.1877 197.042 70.0847L196.579 73.3291C195.343 73.3291 193.952 73.4835 191.789 73.947C190.059 74.3178 189.729 73.6895 189.781 73.3291C188.916 73.3291 188.699 72.8141 188.699 72.5566C187.711 72.5566 187.567 71.8356 187.618 71.4751C186.506 71.1044 186.485 70.2392 186.691 69.9302C188.374 70.1494 189.15 69.9535 190.245 69.3122C189.833 69.3637 187.618 69.405 187.618 69.1578C187.618 68.8488 190.553 67.3038 193.798 69.1578Z" fill="#694638"/>
<path d="M213.727 56.3347C212.615 55.5932 210.998 56.0258 210.328 56.3347C210.328 56.3347 211.101 76.8823 212.028 77.8092C212.954 78.7362 214.345 77.8092 216.199 77.8092C218.053 77.8092 217.486 76.1098 217.435 75.8008C217.795 75.8008 218.64 75.7081 219.134 75.3373C219.555 75.0218 219.409 70.8045 219.229 67.8094C219.18 67.0011 218.507 66.3768 217.698 66.3768H217.126C217.126 61.5875 215.117 57.2617 213.727 56.3347Z" fill="#00CBB9"/>
<path d="M198.588 59.1158C197.475 59.1158 197.094 57.4679 197.043 56.644C201.522 54.1721 199.206 53.3996 204.15 50.7732C208.105 48.6721 209.197 51.9577 209.248 53.8631C210.652 54.567 210.88 55.2305 210.793 56.644C211.747 57.9949 211.786 58.7779 211.411 60.1973C212.096 64.9612 212.83 75.8226 212.647 78.2729C212.481 80.4914 211.823 82.2897 211.411 82.9077V83.7192C211.411 84.2156 211.02 84.6239 210.524 84.6453L198.009 85.1835C197.482 85.2062 197.043 84.785 197.043 84.2574V83.5257C195.099 82.1731 195.976 79.1553 197.043 74.4217C195.96 74.1239 196.734 70.5483 197.043 69.9303C197.289 69.4359 197.78 69.5183 197.995 69.6213C198.486 66.5958 198.809 63.0964 198.588 59.1158Z" fill="#B3FAF3"/>
<path d="M211.563 57.2618C211.769 57.5192 212.181 58.9921 212.181 59.7337C212.181 60.4752 211.563 60.3516 211.254 60.1971C210.018 57.4163 207.379 56.0219 204.765 55.5624C204.096 55.7684 202.695 56.4275 202.448 57.4163C202.201 58.405 202.242 61.2271 202.294 62.051C201.367 60.1971 201.181 57.1073 202.294 55.8713C203.406 54.6354 205.229 54.3264 206.002 54.3264C208.164 54.8788 209.16 55.2979 210.482 56.2855C210.877 56.5375 211.244 56.8575 211.563 57.2618Z" fill="#FF006D"/>
<path d="M192.099 55.2536C192.099 54.2649 191.481 53.0907 191.172 52.6272L195.343 49.2284C195.482 50.1383 196.425 49.5231 196.27 48.7508C197.247 47.655 199.051 48.2872 198.588 50.4502C198.558 51.3473 199.823 52.3182 199.978 51.2368C200.432 52.1572 201.059 52.0092 201.059 51.2368L201.986 52.1638C201.368 52.6271 199.823 55.2535 197.043 56.9529C195.342 57.9921 193.953 56.4896 193.489 55.7171C193.026 55.9746 192.099 56.2424 192.099 55.2536Z" fill="#694639"/>
<path d="M181.592 70.0847H187.649C188.538 70.0847 189.411 69.843 190.173 69.3855C190.28 69.3215 190.235 69.1577 190.11 69.1577H181.592C181.336 69.1577 181.129 69.3652 181.129 69.6212C181.129 69.8772 181.336 70.0847 181.592 70.0847Z" fill="#381E42"/>
<path d="M211.717 55.8714C212.837 57.5824 213.45 58.6045 214.035 62.6691M214.035 62.6691C213.52 63.3386 212.737 64.7702 213.726 65.141C214.715 65.5117 214.344 63.6475 214.035 62.6691ZM217.125 66.3769C217.414 70.0739 217.556 72.1672 217.434 76.2644M217.897 66.5314C218.353 68.0918 218.505 68.9695 218.361 70.5482M218.361 70.5482C218.052 71.3207 217.588 72.8656 218.206 72.8656C218.824 72.8656 218.567 71.3207 218.361 70.5482ZM213.024 72.4021L213.171 74.9846C213.221 75.8543 213.98 76.511 214.848 76.4356L215.405 76.3871C216.203 76.3177 216.816 75.6494 216.816 74.848V72.4021M213.024 72.4021L213.008 72.1302C212.978 71.6069 213.395 71.1662 213.919 71.1662M213.024 72.4021H213.972M216.816 72.4021V72.1317C216.816 71.5985 216.383 71.1662 215.85 71.1662M216.816 72.4021H215.868M214.92 72.4021L214.884 71.1662M214.92 72.4021H213.972M214.92 72.4021H215.868M214.884 71.1662H213.919M214.884 71.1662H215.85M213.972 72.4021L213.919 71.1662M215.868 72.4021L215.85 71.1662M203.22 69.6211L204.456 69.9301M203.22 69.6211L203.993 70.857M203.22 69.6211C201.727 69.8271 199.203 69.6211 198.585 69.6211M203.22 69.6211C202.708 68.9628 202.424 65.8366 202.308 62.9781M197.35 74.7194C199.306 75.9553 204.147 78.0873 207.855 76.7278C211.563 75.3682 211.975 69.5696 211.717 66.8402M211.254 60.1972C210.79 58.6522 208.319 56.7983 206.774 56.0258C205.229 55.2534 202.602 55.5624 202.293 58.3432C202.23 59.1629 202.229 61.0068 202.308 62.9781M211.254 60.1972C212.719 64.7604 213.307 81.519 211.254 82.7531C205.818 83.3098 202.768 83.5054 197.35 83.5256M211.254 60.1972L210.945 57.1074M210.636 56.4894C209.503 55.5109 206.681 53.7703 204.456 54.6354C203.152 55.1428 202.425 55.7182 201.83 56.3456M199.667 58.6523C200.651 57.8322 200.903 57.2218 201.83 56.3456M199.667 56.9529C199.306 58.1373 198.802 60.8461 199.667 62.2056C200.532 63.5651 200.13 65.4499 199.821 66.2224M200.439 81.6717C199.04 79.7332 198.919 78.6526 199.049 76.7278M201.83 56.3456C201.038 57.0944 201.372 60.1524 202.308 62.9781M201.83 54.6354C203.047 53.7085 206.235 52.2563 209.245 53.863M199.049 53.0905C199.203 53.8115 199.018 55.5933 197.041 56.9529M194.569 56.1804C194.973 55.8505 195.105 55.5704 195.032 54.7899M193.07 52.7114L193.513 53.4839" stroke="#381E42" stroke-width="0.462078" stroke-linecap="round" stroke-linejoin="round"/>
<path d="M188.699 137.907H203.839M195.033 135.589L193.797 134.044M195.806 134.971L194.57 133.427" stroke="#381E42" stroke-width="0.462078" stroke-linecap="round" stroke-linejoin="round"/>
<path d="M217.419 136.306L229.705 127.458M221.205 130.724L219.299 130.193M221.47 129.771L219.565 129.24" stroke="#381E42" stroke-width="0.462078" stroke-linecap="round" stroke-linejoin="round"/>
<path d="M196.423 49.2281C196.578 50.155 195.627 50.3742 195.188 49.5371L198.586 46.2927C199.822 46.6017 200.904 50.0005 201.522 50.773C202.016 51.391 201.522 51.5455 201.213 51.5455C200.966 52.5342 199.977 52.3179 199.977 51.5455C199.822 52.7814 198.123 52.4724 198.432 50.9275C199.05 47.6832 196.269 48.6101 196.423 49.2281Z" fill="#381E42"/>
<path d="M191.667 45.2035C194.967 42.8469 197.685 44.8902 198.78 46.3799C198.869 46.5017 198.846 46.6697 198.735 46.7719C196.094 49.1982 194.395 50.5417 191.433 52.6137C191.303 52.7044 191.125 52.6839 191.028 52.5592C189.773 50.9576 188.363 47.564 191.667 45.2035Z" fill="#381E42"/>
<path d="M184.837 57.2617C184.466 56.891 188.451 53.7015 190.466 51.7212L191.433 52.6137C189.219 54.5191 185.207 57.6325 184.837 57.2617Z" fill="#381E42"/>
</svg>
