<svg width="122" height="95" viewBox="0 0 122 95" fill="none" xmlns="http://www.w3.org/2000/svg">
<path d="M9.60405 23.2061L14.0541 25.8237C14.1756 25.8952 14.3307 25.8701 14.4235 25.764L15.0516 25.0462C15.1744 24.9059 15.1368 24.688 14.974 24.597L10.4975 22.0955C10.383 22.0315 10.2399 22.0514 10.1471 22.1442L9.54537 22.7458C9.4097 22.8815 9.43867 23.1088 9.60405 23.2061Z" fill="#381E42"/>
<path d="M14.5576 22.8676C15.3789 23.1022 15.8775 24.1386 16.0242 24.6274L15.1445 25.214L14.4112 24.3341C13.9712 24.2852 13.0618 24.1288 12.9445 23.8941C12.7978 23.6008 13.5311 22.5743 14.5576 22.8676Z" fill="#934D0C"/>
<path d="M13.798 83.8931L16.2954 79.6571L12.5557 77.5416L10.6455 82.3142L13.798 83.8931Z" fill="#9F5108"/>
<path d="M40.5532 85.812L39.3709 81.0388L35.2196 82.1464L37.1968 86.8916L40.5532 85.812Z" fill="#9F5108"/>
<path d="M10.4452 76.1362C14.1218 61.7923 16.7372 49.9693 18.8363 36.907C24.9334 38.0155 28.7997 37.828 33.1815 35.7729L42.4443 79.4624C42.6131 80.2582 42.1018 81.0393 41.3049 81.203L33.4503 82.817C32.6692 82.9775 31.9029 82.4844 31.7254 81.7069L26.7288 59.8239L18.3941 79.7129C18.0643 80.5 17.1348 80.8403 16.3747 80.4523L11.199 77.8098C10.5873 77.4975 10.2747 76.8014 10.4452 76.1362Z" fill="#381E42"/>
<path d="M21.6142 19.5387C23.1578 20.9111 23.7794 15.6843 23.7079 15.3703C21.9362 14.947 19.0225 18.3985 20.7153 19.0544C20.0114 20.1103 18.8577 23.5029 18.3689 25.0671C14.2628 23.454 14.1158 26.0937 13.9691 27.8535C13.8518 29.2614 16.1686 31.7643 17.4885 32.9864C17.1952 35.6261 16.7068 45.5495 16.4624 49.998C16.4624 49.998 18.6956 41.0671 19.1827 36.9067C19.6698 32.7463 20.768 22.5613 21.6142 19.5387Z" fill="#FEB702"/>
<path d="M29.9168 40.2062L30.3992 39.0484C30.472 38.8737 30.6889 38.813 30.8435 38.9223C31.4784 39.3713 31.9326 39.6443 32.5566 39.8983C32.7273 39.9678 32.8003 40.1726 32.7055 40.3306L32.1444 41.2658C32.0671 41.3946 31.905 41.4442 31.7688 41.3807L30.0635 40.5848C29.921 40.5183 29.8563 40.3514 29.9168 40.2062Z" fill="#934D0C"/>
<path d="M19.9853 39.8789C23.4937 40.8618 25.4336 41.0131 28.7844 39.439M23.3546 47.3275L26.8376 61.2219M31.1376 79.4016L36.5637 78.1551M41.9898 76.9086L36.5637 78.1551M36.5637 78.1551L30.5443 47.7981M19.1642 78.1551L14.838 75.7353M10.5117 73.3156L14.838 75.7353M14.838 75.7353L22.7717 54.8374" stroke="white" stroke-width="0.486303" stroke-linecap="round" stroke-linejoin="round"/>
<path d="M12.5025 23.8937C12.2092 23.6004 11.7647 24.0351 10.8885 24.7736C10.0204 25.5054 10.5115 26.1063 11.1638 26.094C11.1731 26.0938 11.1803 26.1025 11.179 26.1117C11.0782 26.782 11.6946 26.7775 12.039 26.6863C12.0496 26.6835 12.0592 26.6936 12.0574 26.7043C11.884 27.7064 12.8762 27.5199 13.1623 27.2372C13.1748 27.2248 13.245 27.2418 13.2477 27.2592C13.2806 27.4718 13.3987 27.8532 13.8224 27.853C14.4098 27.8527 15.1422 25.8003 14.7023 25.507C14.4273 25.3237 14.2096 25.484 14.085 25.6301C14.0732 25.644 14.0189 25.6184 14.0224 25.6006C14.1615 24.9001 13.6881 24.5756 13.1803 25.1088C13.1682 25.1215 13.1335 25.1013 13.1384 25.0845C13.1984 24.8788 13.208 24.5995 13.0891 24.4804C12.9572 24.3482 12.667 24.4143 12.4321 24.5712C12.4181 24.5805 12.4025 24.565 12.4131 24.5519C12.5416 24.3927 12.752 24.1433 12.5025 23.8937Z" fill="#934D0C"/>
<path d="M16.6916 11.5704C16.7856 10.83 15.8986 9.15 15.4433 8.40256C15.6106 8.04764 15.9641 7.18973 16.0393 6.59742C16.1333 5.85703 20.1274 6.17613 23.0385 6.35771C25.9497 6.5393 24.6242 9.75645 24.5537 10.3117C24.4973 10.756 26.7689 12.223 27.4726 12.9393C26.6751 14.4054 24.4046 17.1075 24.4046 17.1075C24.4046 17.1075 22.6789 16.2651 22.3204 15.718C20.2363 18.1495 18.4505 15.6032 17.5159 13.7439C15.8446 13.9079 16.574 12.4958 16.6916 11.5704Z" fill="#9F5108"/>
<path d="M15.3016 6.71446C13.4443 8.46806 16.0083 10.0143 17.2842 8.23209C17.2814 9.1796 17.8142 10.4701 19.6967 9.26198C20.3475 10.6648 20.8062 10.4254 21.6852 9.3336C22.874 7.8569 24.6832 8.6293 24.2756 10.3861L25.4136 11.435C26.4209 12.1059 27.6769 10.8188 26.3573 9.74643C27.673 9.35734 27.4996 7.9017 26.5806 7.96544C27.5222 7.72368 27.823 6.07889 26.2733 6.11799C26.9705 4.94075 26.1799 3.64164 25.0441 4.33391C25.4064 2.93326 23.9452 1.79296 23.0803 2.63699C23.0853 1.19096 21.3631 0.780974 20.7796 2.16395C19.8675 0.782249 17.6099 1.40002 17.9623 2.89154C16.4225 2.15335 15.5696 3.5765 16.106 4.6456C14.3887 3.88487 13.7381 6.15416 15.3016 6.71446Z" fill="#381E42"/>
<path d="M21.9729 16.0654C22.0686 16.0234 22.1866 15.9608 22.3201 15.881C23.2768 15.3094 25.0288 13.8579 25.073 12.8133M23.0153 9.46573L23.3274 10.4356M18.152 10.5075L18.5886 11.4587M19.1939 14.6615L19.5636 14.3285" stroke="#381E42" stroke-width="0.486303" stroke-linecap="round" stroke-linejoin="round"/>
<path d="M27.1824 12.9391L26.1403 11.897C26.7757 11.897 29.4274 12.6899 30.2487 13.0418C31.0699 13.3938 31.1775 14.4595 31.1286 14.9483C39.3598 22.6536 39.7811 27.2671 38.3145 34.7463C39.6833 38.0216 42.7434 45.1293 43.4474 46.7718C44.0983 48.2907 39.3861 52.2331 35.9672 53.0883C35.519 53.2004 35.1022 52.8796 35.0132 52.4262C34.2047 48.3077 32.3749 42.399 32.0085 41.3457L32.7418 40.0258C32.2529 39.7814 31.0699 39.1166 30.2487 38.4126C29.4274 37.7087 29.9065 36.555 30.2487 36.0662C28.9777 35.6262 26.2011 33.8371 25.2627 30.2001C24.3244 26.5631 25.6537 20.7655 26.4357 18.3213C26.1425 18.1258 24.6383 17.342 24.4036 17.1074C24.169 16.8727 27.1824 12.9391 27.1824 12.9391Z" fill="#FEB702"/>
<path d="M9.93918 80.3188L11.1716 81.0169L11.0583 81.3883L14.2944 83.0253L14.6469 82.402L15.2329 84.8112L13.4014 88.4056L12.4318 88.9218L2.73091 84.4461C2.66189 84.4143 2.59857 84.3713 2.54346 84.319L1.54178 83.3673C1.31066 83.1478 1.25863 82.7991 1.41559 82.5216L2.32806 80.9085C2.46752 80.662 2.74267 80.5248 3.02348 80.5618L7.0965 81.0983C7.19306 81.111 7.29121 81.1033 7.38458 81.0756L9.93918 80.3188Z" fill="#997BA5"/>
<path d="M35.2951 85.9616L36.6639 85.5972L36.843 85.9418L40.2998 84.8451L40.1151 84.1532L42.2202 85.4633L43.4289 89.3121L43.098 90.3594L33.0376 93.9552C32.9661 93.9808 32.8908 93.9944 32.8148 93.9956L31.4333 94.0174C31.1146 94.0224 30.8333 93.8099 30.7511 93.5019L30.2733 91.7112C30.2003 91.4376 30.3007 91.147 30.5271 90.9768L33.8111 88.5084C33.8889 88.4499 33.9536 88.3756 34.0009 88.2905L35.2951 85.9616Z" fill="#997BA5"/>
<path d="M7.76736 81.222C7.76736 81.222 11.1635 80.8401 9.72025 79.1265C8.27698 77.413 7.76736 81.222 7.76736 81.222ZM7.76736 81.222C8.99075 80.9802 11.3762 80.785 11.1307 81.9381C10.8851 83.0912 8.78616 81.9412 7.76736 81.222ZM7.76736 81.222L6.31044 82.1675M7.76736 81.222L5.65638 80.5215" stroke="#381E42" stroke-width="0.486303" stroke-linecap="round" stroke-linejoin="round"/>
<path d="M18.9569 23.3073C17.8987 27.0886 17.5169 29.8719 17.3438 36.506M20.2768 18.1745C20.6336 19.3607 21.2855 19.4732 22.4766 19.641C22.9459 19.7137 23.3622 17.1071 23.3622 17.1071M25.7029 17.7345L27.1694 18.7611C28.3427 17.9301 30.7771 16.004 31.129 14.9481C31.481 13.8923 30.3958 13.1394 29.8092 12.895M29.9558 23.3073C31.0794 28.4138 32.2089 31.2558 29.9558 36.506M30.2491 38.4125C31.1779 39.2924 33.3582 40.8469 34.6487 40.0256C36.2619 38.9991 38.6083 35.4794 38.9016 30.9332M25.7029 21.1075C24.5205 27.0459 24.7263 29.5964 26.4362 32.9863M20.5738 24.4017C20.1827 27.7747 19.5317 35.1698 19.1843 37.6013C18.837 40.0329 17.3438 48.0221 17.3438 48.0221M34.8155 87.6211C34.8155 87.6211 36.3439 84.5644 34.1208 84.8423C31.8977 85.1201 34.8155 87.6211 34.8155 87.6211ZM34.8155 87.6211C35.2787 86.4633 36.4134 84.3559 37.247 85.1896C38.0807 86.0233 35.9734 87.158 34.8155 87.6211ZM34.8155 87.6211V89.3579M34.8155 87.6211L33.0787 89.0106" stroke="#381E42" stroke-width="0.486303" stroke-linecap="round" stroke-linejoin="round"/>
<g opacity="0.1">
<path d="M72.2646 51.9317C74.0434 52.6578 75.8011 53.3839 77.5377 54.1101C77.6485 54.1613 77.9177 54.1741 78.1473 54.1357C78.7596 54.0332 79.364 53.9349 79.9604 53.841C80.2771 53.7897 80.4038 53.6744 80.2375 53.6103C78.4218 52.9013 76.5955 52.1922 74.7586 51.4832C74.624 51.4447 74.3944 51.4319 74.1727 51.4704C73.6238 51.5472 73.0722 51.6241 72.518 51.701C72.225 51.7395 72.0825 51.8548 72.2646 51.9317Z" fill="#4C3555"/>
<path d="M81.0742 52.598C82.2698 52.8543 82.151 53.495 81.9531 53.7769C81.2722 53.8367 80.5913 53.8922 79.9104 53.9435C79.7678 53.747 79.6227 53.5505 79.4749 53.354C78.7702 53.2643 77.3609 53.0209 77.3609 52.8671C77.3768 52.6877 79.562 52.2648 81.0742 52.598Z" fill="#4C3555"/>
<path d="M14.0941 89.7076C16.1474 89.0755 18.2138 88.4433 20.2935 87.8112C19.8079 87.2388 19.2959 86.6622 18.7575 86.0813C16.7359 86.8416 14.7301 87.6019 12.7402 88.3622C13.21 88.8064 13.6613 89.2549 14.0941 89.7076Z" fill="#4C3555"/>
<path d="M45.3924 90.4893C47.0181 89.5838 48.6332 88.674 50.2379 87.7599C48.4116 87.7428 46.6117 87.7215 44.8381 87.6958C43.545 88.6441 42.2386 89.5923 40.919 90.5406C42.3811 90.5235 43.8722 90.5064 45.3924 90.4893Z" fill="#4C3555"/>
<path d="M17.8325 85.0433C34.6175 77.893 58.9948 67.5392 74.6793 60.8503C82.8184 62.4392 88.8753 62.9774 97.9012 62.593C84.4732 70.8965 70.2851 79.1915 55.3369 87.478C54.5531 87.888 53.1359 88.1956 52.1937 88.1571C48.7734 88.029 45.4639 87.9008 42.2652 87.7727C41.4497 87.7471 41.3389 87.3883 42.0118 86.991C48.7628 82.8051 55.2921 78.6149 61.5996 74.4204C51.3228 77.5556 31.4452 85.0903 21.9971 88.234C21.0153 88.5672 19.9464 88.6056 19.6614 88.3109C18.8802 87.5335 18.0515 86.7561 17.1753 85.9787C16.8745 85.7353 17.1516 85.3508 17.8325 85.0433Z" fill="#4C3555"/>
<path d="M96.7142 51.9829C98.0364 52.9824 104.632 50.2786 104.845 50.0992C102.019 49.5739 93.2226 50.9321 95.6057 51.5729C93.2938 52.0213 87.91 53.6487 85.5426 54.4048C80.04 52.8543 77.3639 54.251 75.5191 55.1736C74.0386 55.9168 75.4558 57.6467 76.4138 58.5181C73.4052 59.8892 63.1996 65.143 58.6312 67.488C58.6312 67.488 70.3886 63.0543 75.2262 60.9015C80.1033 58.7488 92.1458 53.4693 96.7142 51.9829Z" fill="#4C3555"/>
<path d="M87.8133 64.451C88.5259 64.2546 89.2385 64.0623 89.951 63.8744C90.2202 63.8103 90.5924 63.7975 90.6874 63.8872C91.1228 64.246 91.487 64.4639 92.1363 64.7073C92.2946 64.7714 92.1679 64.8739 91.8671 64.938C91.1967 65.0832 90.5211 65.2284 89.8402 65.3737C89.6185 65.4249 89.3572 65.4249 89.2306 65.3737C88.6922 65.1345 88.1511 64.8953 87.6075 64.6561C87.4887 64.592 87.5758 64.5023 87.8133 64.451Z" fill="#4C3555"/>
<path d="M73.4683 62.6315C77.6645 63.7335 80.3406 64.1307 87.0467 63.836L73.4683 62.6315ZM70.6576 67.1805C67.29 69.8458 63.7984 72.5154 60.1828 75.1893L70.6576 67.1805ZM44.237 85.5943C46.4486 85.6541 48.7051 85.7182 51.0065 85.7865L44.237 85.5943ZM58.2668 85.9787C55.8018 85.9104 53.3817 85.8463 51.0065 85.7865L58.2668 85.9787ZM51.0065 85.7865C61.0616 80.0629 70.7367 74.3307 80.0318 68.59L51.0065 85.7865ZM24.4044 87.4524C23.8343 86.7946 23.2379 86.1368 22.615 85.479L24.4044 87.4524ZM20.4535 83.4928C21.2031 84.1591 21.9236 84.8212 22.615 85.479L20.4535 83.4928ZM22.615 85.479C32.021 82.1473 51.8431 74.429 62.0513 71.1144L22.615 85.479Z" fill="#4C3555"/>
<path d="M76.6345 52.803C76.3811 52.598 75.241 52.7518 73.1191 53.0081C71.0289 53.2515 71.3219 53.6616 72.4145 53.7641C72.4303 53.7641 72.4462 53.7641 72.4382 53.7769C71.6782 54.1229 72.7074 54.2254 73.3646 54.2254C73.3804 54.2254 73.3883 54.2382 73.3804 54.2382C72.1928 54.7508 74.0059 54.8148 74.7422 54.7123C74.766 54.7123 74.8768 54.7252 74.861 54.738C74.7264 54.8533 74.568 55.084 75.2727 55.148C76.2386 55.2505 79.3581 54.2638 78.891 54.0332C78.6059 53.8922 78.0913 53.9435 77.7429 53.9948C77.7033 54.0076 77.6479 53.9819 77.6638 53.9691C78.5347 53.6103 78.0359 53.3669 76.682 53.5719C76.6424 53.5719 76.6107 53.5591 76.6266 53.5463C76.9274 53.4437 77.1887 53.3028 77.1095 53.2131C76.9908 53.1234 76.4366 53.1106 75.9061 53.149C75.8586 53.1618 75.8586 53.149 75.8903 53.1362C76.2386 53.0721 76.8245 52.9824 76.6345 52.803Z" fill="#4C3555"/>
<path d="M95.5718 46.8701C96.4665 46.4857 96.3794 45.4349 96.221 44.9608C96.8782 44.7942 98.3904 44.397 99.0951 44.0894C99.9977 43.705 107.488 44.5635 112.943 45.153C118.406 45.7424 112.46 47.2417 111.739 47.5236C111.177 47.7542 113.877 48.9331 114.407 49.4329C111.335 50.0736 104.273 51.15 104.273 51.15C104.273 51.15 102.017 50.4068 101.914 50.048C95.6431 51.009 94.9226 49.3432 95.0176 48.1771C91.7556 47.9849 94.4634 47.357 95.5718 46.8701Z" fill="#4C3555"/>
<path d="M97.5689 44.0254C92.3196 44.6533 95.7796 45.9219 99.9441 45.1787C98.994 45.6912 98.7565 46.4729 103.562 46.1397C103.388 47.0111 104.505 46.9598 107.292 46.5113C111.076 45.9219 113.776 46.6523 111.147 47.5236C111.496 47.7714 111.839 48.0234 112.177 48.2797C113.356 48.805 117.125 48.3309 115.787 47.5364C118.709 47.5493 119.959 46.7292 118.123 46.6138C120.189 46.6395 122.549 45.8194 119.5 45.5759C122.097 45.0633 121.931 44.2304 118.97 44.4098C121.147 43.7178 119.437 42.8593 116.856 43.1668C118.368 42.3852 115.367 41.8726 112.81 42.5133C112.406 41.6163 107.315 41.5651 106.524 42.4236C104.212 41.7701 101.14 42.3852 101.14 43.0515C98.519 42.3595 95.0907 43.4616 97.5689 44.0254Z" fill="#4C3555"/>
<path d="M100.925 50.1761C101.139 50.1761 101.432 50.1633 101.74 50.1377C104.1 49.9967 108.866 49.5098 110.077 48.9588L100.925 50.1761ZM109.697 46.8188C109.56 47.0068 109.423 47.199 109.286 47.3955L109.697 46.8188ZM99.3731 46.5497C99.3414 46.7462 99.2992 46.9427 99.2464 47.1392L99.3731 46.5497ZM97.2195 48.9588C97.5626 48.9161 97.9057 48.8776 98.2488 48.8435L97.2195 48.9588Z" fill="#4C3555"/>
<path d="M113.862 49.3817C113.603 49.1339 113.331 48.8905 113.046 48.6513C114.25 48.7538 118.32 49.6251 119.452 49.9583C120.544 50.2787 119.531 50.8681 118.89 51.1244C123.798 56.6088 118.668 59.146 106.982 62.8877C104.907 64.8611 100.22 69.1538 99.0642 70.1405C97.1324 70.9606 86.4359 72.4086 80.9016 72.3061C80.2524 72.2805 80.1098 72.0626 80.5057 71.832C84.3853 69.4998 88.8745 66.0144 89.587 65.3865C90.458 65.19 91.3342 64.9935 92.2156 64.797C91.7881 64.592 90.8063 64.041 90.3946 63.5284C89.9513 63.0159 74.0233 61.288 75.1 61.083C73.6432 60.6345 85.826 56.5143 88.2645 54.4C90.5923 52.3113 98.1059 50.3436 102.152 49.1647C101.843 49.0109 104.447 51.3038 104.273 51.15C104.083 50.9834 113.862 49.3817 113.862 49.3817Z" fill="#4C3555"/>
<path d="M13.833 87.1705C14.0125 87.3584 14.1866 87.5506 14.3555 87.7471C14.2183 87.8069 14.0758 87.8667 13.928 87.9265C14.4189 88.3878 14.8886 88.8491 15.3373 89.3104C15.6382 89.2164 15.9364 89.1225 16.232 89.0285C15.6514 89.4898 15.0655 89.9554 14.4743 90.4252C12.8222 90.972 11.1859 91.5187 9.56548 92.0654C9.13266 92.1082 8.70511 92.1509 8.28285 92.1936C6.446 90.7669 4.36899 89.3318 2.05181 87.8881C2.0043 87.8624 1.9568 87.824 1.94888 87.7984C1.84332 87.5592 1.73511 87.3242 1.62427 87.0936C1.55301 86.9654 1.74303 86.7732 2.07556 86.6579C2.82508 86.4102 3.57196 86.1581 4.3162 85.9019C4.62498 85.7994 4.96544 85.7737 5.21879 85.825C7.02397 86.2692 8.78693 86.7134 10.5077 87.1576C10.5789 87.1705 10.6818 87.1833 10.7768 87.1833C11.7956 87.1833 12.8143 87.179 13.833 87.1705Z" fill="#4C3555"/>
<path d="M40.3476 89.7589C40.8965 89.7589 41.4508 89.7632 42.0103 89.7717C41.9258 89.8401 41.8387 89.9127 41.749 89.9896C43.2639 89.9639 44.8025 89.9468 46.3649 89.9383C46.5971 89.8016 46.8267 89.6692 47.0537 89.5411C47.2015 89.8828 47.344 90.2245 47.4812 90.5662C46.2355 91.318 44.9846 92.0654 43.7284 92.8087C43.1636 92.9795 42.5988 93.1461 42.034 93.3084C36.9299 93.5903 37.6477 93.8765 33.1031 94.167C33.0002 94.1798 32.921 94.167 32.8577 94.1541C32.4935 94.0858 32.1266 94.0175 31.7571 93.9491C31.5196 93.9107 31.5275 93.7697 31.7571 93.6031C32.3008 93.2358 32.8445 92.8685 33.3881 92.5011C33.5782 92.373 33.9028 92.2448 34.2116 92.1936C36.6607 91.7494 33.6072 91.3137 36.1355 90.8866C36.2384 90.8609 36.3414 90.8353 36.4443 90.8097C37.7322 90.4594 39.0333 90.1092 40.3476 89.7589Z" fill="#4C3555"/>
<path d="M11.0375 87.3242C11.0375 87.3242 14.5053 87.6446 14.6478 86.5041C14.7112 85.3508 11.0375 87.3242 11.0375 87.3242ZM11.0375 87.3242C12.3834 87.3883 14.7666 87.6446 13.5077 88.234C12.2726 88.8107 11.37 87.8752 11.0375 87.3242ZM11.0375 87.3242C10.3143 87.4182 9.59121 87.5122 8.86808 87.6061L11.0375 87.3242ZM11.0375 87.3242C10.5624 87.085 10.0821 86.8501 9.59648 86.6195L11.0375 87.3242Z" fill="#4C3555"/>
<path d="M88.2655 53.559C82.755 55.4171 79.4454 56.8523 72.771 60.389L88.2655 53.559ZM95.7 51.0219C95.1379 51.7266 96.1909 51.8932 98.1465 52.1751C98.9066 52.3033 102.374 50.9706 102.374 50.9706L95.7 51.0219ZM105.945 51.701C106.452 51.9658 106.953 52.2307 107.45 52.4955C110.458 52.252 117.029 51.6241 118.89 51.1244C120.75 50.6118 119.611 50.0224 118.803 49.8045L105.945 51.701ZM107.228 55.3915C103.214 58.3131 101.725 60.0174 92.1292 62.4649L107.228 55.3915ZM90.3946 63.5284C90.7668 64.1435 92.1451 65.3352 95.0349 65.1046C98.6532 64.8226 106.507 63.3234 112.643 60.9528L90.3946 63.5284ZM102.295 53.5078C93.8948 56.4935 91.4958 57.8902 90.5932 59.9917L102.295 53.5078ZM89.944 54.4176C85.9061 56.1603 77.474 60.0302 74.5287 61.2731C71.6072 62.5289 61.7104 66.5782 61.7104 66.5782L89.944 54.4176ZM37.9738 90.5662C37.9738 90.5662 42.9697 89.1694 40.6183 88.9772C38.346 88.7722 37.9738 90.5662 37.9738 90.5662ZM37.9738 90.5662C39.7315 90.0152 43.2785 89.0669 43.0331 89.6436C42.7797 90.2202 39.5177 90.4893 37.9738 90.5662ZM37.9738 90.5662C37.2929 90.8737 36.6173 91.1855 35.947 91.5016L37.9738 90.5662ZM37.9738 90.5662C36.9446 90.72 35.9232 90.878 34.9098 91.0403L37.9738 90.5662Z" fill="#4C3555"/>
</g>
</svg>
